<svg aria-hidden="true" style="position: absolute; width: 0; height: 0; overflow: hidden;" version="1.1" xmlns="http://www.w3.org/2000/svg" xmlns:xlink="http://www.w3.org/1999/xlink">
  <defs>

    <symbol id="logo" viewBox="0 0 40 22">
          <title>Logo</title>
          <path d="M22.8203 0.384418C13.6603 0.837823 5.48031 4.2975 3.66031 8.46686C2.66031 10.7634 3.91031 13.2473 6.79031 14.7061L6.96031 14.7948L7.57031 14.371L8.18031 13.9471L7.74031 13.7303C3.78031 11.7787 3.61031 8.96954 7.29031 6.26883C14.3103 1.10395 30.0103 0.019723 36.4803 4.25807C36.8503 4.50449 37.5403 5.0466 37.5103 5.07617C37.5003 5.08603 37.2603 5.07617 36.9603 5.05646C26.6803 4.40592 15.1803 8.76255 4.94031 17.1801C3.01031 18.767 0.0903107 21.4875 0.280311 21.517C0.310311 21.5269 1.65031 21.1228 3.25031 20.6299L6.16031 19.733L6.45031 19.3387C10.2503 14.2133 16.0603 10.1425 23.2303 7.59947C24.3203 7.21506 26.6703 6.50538 26.8703 6.50538C26.8903 6.50538 26.4603 6.65323 25.9103 6.84051C19.8303 8.85126 14.3003 12.1729 9.82031 16.5C8.65031 17.6335 6.98031 19.4964 7.06031 19.5753C7.07031 19.5851 7.48031 19.5457 7.98031 19.4964C8.48031 19.4471 8.92031 19.3979 8.97031 19.3979C9.03031 19.3979 9.14031 19.2894 9.37031 18.9937C13.3003 13.819 19.7403 9.5708 27.6003 6.93908C28.4703 6.65323 28.5103 6.65323 27.7103 6.95879C21.5903 9.26524 16.1103 12.7348 12.2903 16.7267C11.4803 17.5744 10.4403 18.8163 10.1903 19.2402L10.1203 19.3584L10.3703 19.3781C10.9403 19.4373 16.7303 19.8315 16.7503 19.8217C16.7603 19.8118 16.7903 19.6443 16.8303 19.457C17.7503 14.2231 21.7903 10.1326 28.7203 7.44177C31.2803 6.44625 34.6103 5.57886 37.2803 5.20431L37.6103 5.15503L37.7603 5.33245C39.0603 6.78137 38.8203 8.388 37.0403 10.1425C33.7703 13.3656 26.6703 15.6031 19.2403 15.7509L18.8203 15.7608L18.4903 16.4113L18.1603 17.0618L19.4303 17.0421C28.7903 16.8647 37.6403 13.2966 39.5503 8.93997C40.0103 7.88531 40.0003 6.63352 39.5303 5.638C37.8703 2.14875 30.9403 -0.0197035 22.8203 0.384418Z"/>
    </symbol>

    <symbol id="carat-right" viewBox="0 0 16 16" fill="none">
        <title>Carat Right</title>
        <path d="M5.75 3.5L10.25 8L5.75 12.5" stroke-width="2" stroke-linecap="round" stroke-linejoin="round"/>
    </symbol>

    <symbol id="carat-left" viewBox="0 0 16 16" fill="none">
        <title>Carat Left</title>
        <path d="M10.25 3.5L5.75 8L10.25 12.5" stroke-width="2" stroke-linecap="round" stroke-linejoin="round"/>
    </symbol>

    <symbol id="back" viewBox="0 0 16 16" fill="none">
        <title>Back Arrow</title>
        <path d="M5.5 12.5L1 8L5.5 3.5" stroke-width="2" stroke-linecap="round" stroke-linejoin="round"/>
        <path d="M2 8H15" stroke-width="2" stroke-linecap="round" stroke-linejoin="round"/>
    </symbol>


    <symbol id="globe" viewBox="0 0 16 16" fill="none">
        <title>Globe</title>
        <path d="M8 1.5C4.41031 1.5 1.5 4.41031 1.5 8C1.5 11.5897 4.41031 14.5 8 14.5C11.5897 14.5 14.5 11.5897 14.5 8C14.5 4.41031 11.5897 1.5 8 1.5Z" stroke-miterlimit="10"/>
        <path d="M7.99945 1.5C6.18476 1.5 4.47852 4.41031 4.47852 8C4.47852 11.5897 6.18476 14.5 7.99945 14.5C9.81413 14.5 11.5204 11.5897 11.5204 8C11.5204 4.41031 9.81413 1.5 7.99945 1.5Z" stroke-miterlimit="10"/>
        <path d="M3.66602 3.6665C4.86102 4.51494 6.36539 5.02088 7.99945 5.02088C9.63352 5.02088 11.1379 4.51494 12.3329 3.6665" stroke-linecap="round" stroke-linejoin="round"/>
        <path d="M12.3329 12.3334C11.1379 11.4849 9.63352 10.979 7.99945 10.979C6.36539 10.979 4.86102 11.4849 3.66602 12.3334" stroke-linecap="round" stroke-linejoin="round"/>
        <path d="M8 1.5V14.5" stroke-miterlimit="10"/>
        <path d="M14.5 8H1.5" stroke-miterlimit="10"/>
    </symbol>

    <symbol id="menu" viewBox="0 0 16 16">
        <title>Menu</title>
        <path d="M4.5 3.25C4.5 2.55964 3.94036 2 3.25 2C2.55964 2 2 2.55964 2 3.25C2 3.94036 2.55964 4.5 3.25 4.5C3.94036 4.5 4.5 3.94036 4.5 3.25Z"/>
        <path d="M9.25 3.25C9.25 2.55964 8.69036 2 8 2C7.30964 2 6.75 2.55964 6.75 3.25C6.75 3.94036 7.30964 4.5 8 4.5C8.69036 4.5 9.25 3.94036 9.25 3.25Z"/>
        <path d="M14 3.25C14 2.55964 13.4404 2 12.75 2C12.0596 2 11.5 2.55964 11.5 3.25C11.5 3.94036 12.0596 4.5 12.75 4.5C13.4404 4.5 14 3.94036 14 3.25Z"/>
        <path d="M4.5 8C4.5 7.30964 3.94036 6.75 3.25 6.75C2.55964 6.75 2 7.30964 2 8C2 8.69036 2.55964 9.25 3.25 9.25C3.94036 9.25 4.5 8.69036 4.5 8Z"/>
        <path d="M9.25 8C9.25 7.30964 8.69036 6.75 8 6.75C7.30964 6.75 6.75 7.30964 6.75 8C6.75 8.69036 7.30964 9.25 8 9.25C8.69036 9.25 9.25 8.69036 9.25 8Z"/>
        <path d="M14 8C14 7.30964 13.4404 6.75 12.75 6.75C12.0596 6.75 11.5 7.30964 11.5 8C11.5 8.69036 12.0596 9.25 12.75 9.25C13.4404 9.25 14 8.69036 14 8Z"/>
        <path d="M4.5 12.75C4.5 12.0596 3.94036 11.5 3.25 11.5C2.55964 11.5 2 12.0596 2 12.75C2 13.4404 2.55964 14 3.25 14C3.94036 14 4.5 13.4404 4.5 12.75Z"/>
        <path d="M9.25 12.75C9.25 12.0596 8.69036 11.5 8 11.5C7.30964 11.5 6.75 12.0596 6.75 12.75C6.75 13.4404 7.30964 14 8 14C8.69036 14 9.25 13.4404 9.25 12.75Z"/>
        <path d="M14 12.75C14 12.0596 13.4404 11.5 12.75 11.5C12.0596 11.5 11.5 12.0596 11.5 12.75C11.5 13.4404 12.0596 14 12.75 14C13.4404 14 14 13.4404 14 12.75Z"/>
    </symbol>

    <symbol id="exit" viewBox="0 0 18 18" fill="none">
        <title>Exit</title>
        <path d="M11.25 6.1875V4.78125C11.25 4.40829 11.1018 4.0506 10.8381 3.78688C10.5744 3.52316 10.2167 3.375 9.84375 3.375H3.09375C2.72079 3.375 2.3631 3.52316 2.09938 3.78688C1.83566 4.0506 1.6875 4.40829 1.6875 4.78125V13.2188C1.6875 13.5917 1.83566 13.9494 2.09938 14.2131C2.3631 14.4768 2.72079 14.625 3.09375 14.625H9.84375C10.2167 14.625 10.5744 14.4768 10.8381 14.2131C11.1018 13.9494 11.25 13.5917 11.25 13.2188V11.8125" stroke-linecap="round" stroke-linejoin="round"/>
        <path d="M13.5 6.1875L16.3125 9L13.5 11.8125" stroke-linecap="round" stroke-linejoin="round"/>
        <path d="M6.71484 9H16.3125" stroke-linecap="round" stroke-linejoin="round"/>
    </symbol>

    <symbol id="star" viewBox="0 0 16 16">
        <title>Star</title>
        <path d="M15 6.5H9.625L8 1.5L6.375 6.5H1L5.375 9.5L3.6875 14.5L8 11.375L12.3125 14.5L10.625 9.5L15 6.5Z" stroke-linejoin="round"/>
    </symbol>

    <symbol id="person" viewBox="0 0 18 18" fill="none">
        <title>Person</title>
        <path d="M12.0939 5.0625C11.9561 6.92121 10.547 8.4375 9.00015 8.4375C7.45328 8.4375 6.04175 6.92156 5.9064 5.0625C5.76578 3.12891 7.13687 1.6875 9.00015 1.6875C10.8634 1.6875 12.2345 3.16406 12.0939 5.0625Z" stroke-linecap="round" stroke-linejoin="round"/>
        <path d="M9.00009 10.6875C5.94149 10.6875 2.83719 12.375 2.26274 15.5602C2.19348 15.9441 2.41075 16.3125 2.81259 16.3125H15.1876C15.5898 16.3125 15.807 15.9441 15.7378 15.5602C15.163 12.375 12.0587 10.6875 9.00009 10.6875Z" stroke-miterlimit="10"/>
    </symbol>

    <symbol id="close" viewBox="0 0 18 18" fill="none">
        <title>Close</title>
        <path d="M12.9375 12.9375L5.0625 5.0625" stroke-linecap="round" stroke-linejoin="round"/>
        <path d="M12.9375 5.0625L5.0625 12.9375" stroke-linecap="round" stroke-linejoin="round"/>
    </symbol>

    <symbol id="checkmark-circle" viewBox="0 0 20 20" fill="none">
        <title>Checkmark Circle</title>
        <path d="M17.5 10C17.5 5.85938 14.1406 2.5 10 2.5C5.85938 2.5 2.5 5.85938 2.5 10C2.5 14.1406 5.85938 17.5 10 17.5C14.1406 17.5 17.5 14.1406 17.5 10Z" stroke-miterlimit="10"/>
        <path d="M13.75 6.875L8.5 13.125L6.25 10.625" stroke-linecap="round" stroke-linejoin="round"/>
    </symbol>

    <symbol id="eye" viewBox="0 0 18 18" fill="none">
        <path d="M8.98808 3.9375C6.248 3.9375 3.43726 5.5234 1.22453 8.6952C1.16137 8.78673 1.12675 8.89493 1.12506 9.00612C1.12338 9.11731 1.15468 9.22651 1.21503 9.31992C2.91519 11.9813 5.68832 14.0625 8.98808 14.0625C12.252 14.0625 15.0821 11.9749 16.7854 9.30762C16.8443 9.21604 16.8757 9.10943 16.8757 9.00053C16.8757 8.89162 16.8443 8.78502 16.7854 8.69344C15.0782 6.05672 12.2274 3.9375 8.98808 3.9375Z" stroke-linecap="round" stroke-linejoin="round"/>
        <path d="M9 11.8125C10.5533 11.8125 11.8125 10.5533 11.8125 9C11.8125 7.4467 10.5533 6.1875 9 6.1875C7.4467 6.1875 6.1875 7.4467 6.1875 9C6.1875 10.5533 7.4467 11.8125 9 11.8125Z" stroke-miterlimit="10"/>
    </symbol>

    <symbol id="eye-off" viewBox="0 0 18 18">
        <path d="M15.1876 15.75C15.1137 15.7501 15.0405 15.7356 14.9723 15.7073C14.904 15.679 14.8421 15.6374 14.79 15.5851L2.41495 3.21007C2.31392 3.10372 2.25842 2.96211 2.2603 2.81543C2.26218 2.66875 2.32128 2.52861 2.42501 2.42488C2.52873 2.32116 2.66887 2.26206 2.81555 2.26018C2.96223 2.2583 3.10384 2.3138 3.21019 2.41483L15.5852 14.7898C15.6638 14.8685 15.7173 14.9687 15.739 15.0778C15.7607 15.1869 15.7496 15.2999 15.707 15.4027C15.6645 15.5054 15.5924 15.5933 15.4999 15.6551C15.4075 15.7169 15.2988 15.7499 15.1876 15.75V15.75Z"/>
        <path d="M8.98802 13.5C7.52938 13.5 6.12278 13.0683 4.80724 12.2168C3.60946 11.4434 2.53122 10.3356 1.68888 9.01757V9.01476C2.38989 8.01035 3.1577 7.16097 3.98247 6.47613C3.98993 6.46989 3.99602 6.46217 4.00034 6.45346C4.00467 6.44475 4.00714 6.43524 4.0076 6.42553C4.00807 6.41581 4.00651 6.40611 4.00303 6.39703C3.99955 6.38795 3.99423 6.37969 3.98739 6.37277L3.28708 5.67351C3.27463 5.66096 3.25792 5.65356 3.24027 5.65278C3.22261 5.652 3.20531 5.65789 3.19181 5.66929C2.31571 6.40757 1.50255 7.3132 0.763211 8.37351C0.63601 8.55608 0.565956 8.77234 0.56195 8.99481C0.557943 9.21729 0.620166 9.43593 0.740711 9.62296C1.66919 11.076 2.86415 12.2998 4.19587 13.1614C5.69528 14.1328 7.30895 14.625 8.98802 14.625C9.89433 14.6222 10.7942 14.4728 11.6529 14.1827C11.6642 14.1789 11.6743 14.1722 11.6824 14.1634C11.6904 14.1545 11.6961 14.1437 11.6988 14.1321C11.7015 14.1204 11.7012 14.1083 11.6979 14.0968C11.6946 14.0853 11.6884 14.0748 11.6799 14.0664L10.9213 13.3077C10.9038 13.2907 10.8822 13.2784 10.8586 13.2723C10.835 13.2661 10.8102 13.2662 10.7866 13.2725C10.1991 13.4238 9.59474 13.5003 8.98802 13.5V13.5Z"/>
        <path d="M17.2562 8.38828C16.326 6.94969 15.1191 5.72766 13.7662 4.85402C12.2696 3.88652 10.6173 3.375 8.98816 3.375C8.09145 3.37659 7.20141 3.52907 6.35531 3.82605C6.34404 3.82998 6.33395 3.83671 6.32599 3.84561C6.31804 3.8545 6.31248 3.86528 6.30984 3.87692C6.30721 3.88856 6.30758 3.90069 6.31092 3.91214C6.31426 3.9236 6.32046 3.93402 6.32894 3.94242L7.08656 4.70004C7.1042 4.71738 7.12609 4.72976 7.15004 4.73593C7.17399 4.7421 7.19915 4.74185 7.22297 4.7352C7.79846 4.57952 8.39198 4.50044 8.98816 4.5C10.4187 4.5 11.8211 4.93699 13.1559 5.80078C14.3762 6.58828 15.4671 7.695 16.3116 9C16.3122 9.0008 16.3125 9.00179 16.3125 9.00281C16.3125 9.00383 16.3122 9.00482 16.3116 9.00563C15.6986 9.97064 14.9379 10.8334 14.0573 11.5625C14.0498 11.5688 14.0436 11.5765 14.0392 11.5852C14.0349 11.5939 14.0323 11.6035 14.0318 11.6132C14.0313 11.623 14.0329 11.6327 14.0364 11.6419C14.0398 11.651 14.0452 11.6593 14.0521 11.6662L14.7517 12.3655C14.7641 12.378 14.7807 12.3854 14.7982 12.3863C14.8158 12.3871 14.8331 12.3813 14.8466 12.3701C15.7867 11.5785 16.6004 10.6481 17.2597 9.61102C17.3763 9.42826 17.4379 9.21588 17.4372 8.99913C17.4366 8.78238 17.3738 8.57037 17.2562 8.38828V8.38828Z"/>
        <path d="M8.99993 5.625C8.74713 5.62486 8.49512 5.65317 8.24864 5.70938C8.2362 5.71196 8.22468 5.71787 8.21532 5.72648C8.20597 5.73509 8.19912 5.74608 8.19552 5.75827C8.19191 5.77046 8.19168 5.78341 8.19484 5.79572C8.198 5.80804 8.20445 5.81926 8.21349 5.8282L12.1717 9.78539C12.1807 9.79443 12.1919 9.80087 12.2042 9.80404C12.2165 9.8072 12.2295 9.80697 12.2417 9.80336C12.2539 9.79975 12.2648 9.79291 12.2735 9.78355C12.2821 9.7742 12.288 9.76268 12.2906 9.75023C12.4033 9.25595 12.4031 8.74263 12.2902 8.24839C12.1773 7.75416 11.9546 7.29171 11.6384 6.89538C11.3223 6.49906 10.9209 6.17905 10.4641 5.95912C10.0074 5.73919 9.5069 5.62499 8.99993 5.625V5.625Z"/>
        <path d="M5.82818 8.21459C5.81924 8.20555 5.80801 8.1991 5.7957 8.19594C5.78338 8.19277 5.77044 8.19301 5.75825 8.19661C5.74606 8.20022 5.73507 8.20707 5.72646 8.21642C5.71785 8.22578 5.71194 8.23729 5.70935 8.24974C5.58186 8.80674 5.59787 9.38699 5.75588 9.93611C5.9139 10.4852 6.20874 10.9852 6.61278 11.3893C7.01683 11.7933 7.51684 12.0882 8.06596 12.2462C8.61508 12.4042 9.19533 12.4202 9.75233 12.2927C9.76478 12.2901 9.77629 12.2842 9.78565 12.2756C9.795 12.267 9.80185 12.256 9.80545 12.2438C9.80906 12.2316 9.8093 12.2187 9.80613 12.2064C9.80297 12.1941 9.79652 12.1828 9.78748 12.1739L5.82818 8.21459Z"/>
    </symbol>

    <symbol id="key" viewBox="0 0 18 18" fill="none">
        <path d="M7.66758 5.87707C7.66758 6.3341 7.66758 6.77707 7.81172 7.19191C6.29648 8.97082 2.2957 13.6712 1.92305 14.0298C1.84898 14.0963 1.78973 14.1776 1.74915 14.2684C1.70857 14.3593 1.68756 14.4576 1.6875 14.5571C1.6875 14.856 1.87031 15.1443 2.025 15.306C2.25703 15.5486 3.24844 16.4661 3.43125 16.2904C3.97266 15.763 4.08164 15.6224 4.30313 15.4044C4.63711 15.0775 4.26797 14.4095 4.38398 14.1388C4.5 13.8681 4.62305 13.8154 4.82344 13.7732C5.02383 13.731 5.37891 13.8751 5.65664 13.8786C5.94844 13.8821 6.10664 13.7591 6.32461 13.5552C6.50039 13.3935 6.62695 13.2423 6.63047 13.0068C6.6375 12.6904 6.18047 12.272 6.52148 11.938C6.8625 11.604 7.35469 12.156 7.7168 12.1138C8.07891 12.0716 8.51836 11.5689 8.56406 11.3544C8.60977 11.14 8.15273 10.588 8.22305 10.2751C8.24766 10.1696 8.46211 9.92355 8.62383 9.8884C8.78555 9.85324 9.50273 10.131 9.66445 10.0958C9.86133 10.0536 10.0898 9.84621 10.2762 9.73019C10.8211 9.96574 11.3168 10.0607 11.9531 10.0607C14.3613 10.0607 16.3125 8.18332 16.3125 5.87004C16.3125 3.55676 14.3613 1.6875 11.9531 1.6875C9.54492 1.6875 7.66758 3.56379 7.66758 5.87707ZM14.0625 5.0625C14.0625 5.285 13.9965 5.50251 13.8729 5.68752C13.7493 5.87252 13.5736 6.01672 13.368 6.10186C13.1625 6.18701 12.9363 6.20929 12.718 6.16588C12.4998 6.12248 12.2993 6.01533 12.142 5.85799C11.9847 5.70066 11.8775 5.50021 11.8341 5.28198C11.7907 5.06375 11.813 4.83755 11.8981 4.63198C11.9833 4.42641 12.1275 4.25071 12.3125 4.1271C12.4975 4.00348 12.715 3.9375 12.9375 3.9375C13.2359 3.9375 13.522 4.05603 13.733 4.267C13.944 4.47798 14.0625 4.76413 14.0625 5.0625Z" stroke-linejoin="round"/>
    </symbol>

    <symbol id="email" viewBox="0 0 18 18" fill="none">
        <path d="M14.9062 3.375H3.09375C2.3171 3.375 1.6875 4.0046 1.6875 4.78125V13.2188C1.6875 13.9954 2.3171 14.625 3.09375 14.625H14.9062C15.6829 14.625 16.3125 13.9954 16.3125 13.2188V4.78125C16.3125 4.0046 15.6829 3.375 14.9062 3.375Z" stroke-linecap="round" stroke-linejoin="round"/>
        <path d="M3.9375 5.625L9 9.5625L14.0625 5.625" stroke-linecap="round" stroke-linejoin="round"/>
    </symbol>

    <symbol id="google" viewBox="0 0 16 16">
        <path d="M14.7863 6.92125L14.7156 6.62156H8.20187V9.37844H12.0938C11.6897 11.2972 9.81469 12.3072 8.28312 12.3072C7.16875 12.3072 5.99406 11.8384 5.21656 11.085C4.80635 10.6811 4.47983 10.2003 4.25568 9.6701C4.03154 9.13987 3.91418 8.57064 3.91031 7.995C3.91031 6.83375 4.43219 5.67219 5.19156 4.90812C5.95094 4.14406 7.09781 3.71656 8.23812 3.71656C9.54406 3.71656 10.48 4.41 10.83 4.72625L12.7891 2.7775C12.2144 2.2725 10.6356 1 8.175 1C6.27656 1 4.45625 1.72719 3.12562 3.05344C1.8125 4.35938 1.13281 6.24781 1.13281 8C1.13281 9.75219 1.77594 11.5463 3.04844 12.8625C4.40812 14.2663 6.33375 15 8.31656 15C10.1206 15 11.8306 14.2931 13.0494 13.0106C14.2475 11.7481 14.8672 10.0013 14.8672 8.17C14.8672 7.39906 14.7897 6.94125 14.7863 6.92125Z"/>
    </symbol>

    <symbol id="facebook" viewBox="0 0 16 16">
        <path fill-rule="evenodd" clip-rule="evenodd" d="M15.0002 8.04199C15.0002 4.17637 11.8659 1.04199 8.00024 1.04199C4.13462 1.04199 1.00024 4.17637 1.00024 8.04199C1.00024 11.5357 3.55962 14.4317 6.90649 14.9573V10.0661H5.12868V8.04199H6.90649V6.49949C6.90649 4.74543 7.95181 3.77574 9.55056 3.77574C10.3165 3.77574 11.1177 3.91262 11.1177 3.91262V5.63543H10.2346C9.36556 5.63543 9.09368 6.17481 9.09368 6.72918V8.0423H11.0349L10.7249 10.0664H9.09368V14.9579C12.4409 14.4326 15.0002 11.5367 15.0002 8.04199Z"/>
    </symbol>

    <symbol id="lock" viewBox="0 0 50 50" fill="none">
        <path d="M32.8125 20.3125V11.0352C32.8125 8.96315 31.9894 6.97601 30.5243 5.51088C29.0591 4.04576 27.072 3.22266 25 3.22266C22.928 3.22266 20.9409 4.04576 19.4757 5.51088C18.0106 6.97601 17.1875 8.96315 17.1875 11.0352V20.3125" stroke-width="2" stroke-linecap="round" stroke-linejoin="round"/>
        <path d="M35.9375 20.3125H14.0625C11.4737 20.3125 9.375 22.4112 9.375 25V42.1875C9.375 44.7763 11.4737 46.875 14.0625 46.875H35.9375C38.5263 46.875 40.625 44.7763 40.625 42.1875V25C40.625 22.4112 38.5263 20.3125 35.9375 20.3125Z" stroke-width="2" stroke-linecap="round" stroke-linejoin="round"/>
    </symbol>

    <symbol id="calendar" viewBox="0 0 20 20">
        <path d="M3.75 3.125H16.25C17.2855 3.125 18.125 3.96447 18.125 5V16.25C18.125 17.2855 17.2855 18.125 16.25 18.125H3.75C2.71447 18.125 1.875 17.2855 1.875 16.25V5C1.875 3.96447 2.71447 3.125 3.75 3.125Z" stroke="currentColor" stroke-linejoin="round"/>
        <path d="M4.46016 3.125H15.5398C16.9652 3.125 18.125 4.30273 18.125 5.75V8.125H17.5C17.5 7.5 16.875 6.875 16.25 6.875H3.75C3.125 6.875 2.5 7.5 2.5 8.125H1.875V5.75C1.875 4.30273 3.03477 3.125 4.46016 3.125Z" fill="currentColor"/>
        <path d="M8.4375 10C7.91973 10 7.5 9.58027 7.5 9.0625C7.5 8.54473 7.91973 8.125 8.4375 8.125C8.95527 8.125 9.375 8.54473 9.375 9.0625C9.375 9.58027 8.95527 10 8.4375 10Z" fill="currentColor"/>
        <path d="M5.3125 10C4.79473 10 4.375 9.58027 4.375 9.0625C4.375 8.54473 4.79473 8.125 5.3125 8.125C5.83027 8.125 6.25 8.54473 6.25 9.0625C6.25 9.58027 5.83027 10 5.3125 10Z" fill="currentColor"/>
        <path d="M8.4375 13.125C7.91973 13.125 7.5 12.7053 7.5 12.1875C7.5 11.6697 7.91973 11.25 8.4375 11.25C8.95527 11.25 9.375 11.6697 9.375 12.1875C9.375 12.7053 8.95527 13.125 8.4375 13.125Z" fill="currentColor"/>
        <path d="M5.3125 13.125C4.79473 13.125 4.375 12.7053 4.375 12.1875C4.375 11.6697 4.79473 11.25 5.3125 11.25C5.83027 11.25 6.25 11.6697 6.25 12.1875C6.25 12.7053 5.83027 13.125 5.3125 13.125Z" fill="currentColor"/>
        <path d="M14.6875 13.125C14.1697 13.125 13.75 12.7053 13.75 12.1875C13.75 11.6697 14.1697 11.25 14.6875 11.25C15.2053 11.25 15.625 11.6697 15.625 12.1875C15.625 12.7053 15.2053 13.125 14.6875 13.125Z" fill="currentColor"/>
        <path d="M11.5625 13.125C11.0447 13.125 10.625 12.7053 10.625 12.1875C10.625 11.6697 11.0447 11.25 11.5625 11.25C12.0803 11.25 12.5 11.6697 12.5 12.1875C12.5 12.7053 12.0803 13.125 11.5625 13.125Z" fill="currentColor"/>
        <path d="M14.6875 16.25C14.1697 16.25 13.75 15.8303 13.75 15.3125C13.75 14.7947 14.1697 14.375 14.6875 14.375C15.2053 14.375 15.625 14.7947 15.625 15.3125C15.625 15.8303 15.2053 16.25 14.6875 16.25Z" fill="currentColor"/>
        <path d="M11.5625 16.25C11.0447 16.25 10.625 15.8303 10.625 15.3125C10.625 14.7947 11.0447 14.375 11.5625 14.375C12.0803 14.375 12.5 14.7947 12.5 15.3125C12.5 15.8303 12.0803 16.25 11.5625 16.25Z" fill="currentColor"/>
        <path d="M8.4375 16.25C7.91973 16.25 7.5 15.8303 7.5 15.3125C7.5 14.7947 7.91973 14.375 8.4375 14.375C8.95527 14.375 9.375 14.7947 9.375 15.3125C9.375 15.8303 8.95527 16.25 8.4375 16.25Z" fill="currentColor"/>
        <path d="M15 1.875V3.125" stroke="currentColor" stroke-width="2" stroke-linecap="round" stroke-linejoin="round"/>
        <path d="M5 1.875V3.125" stroke="currentColor" stroke-width="2" stroke-linecap="round" stroke-linejoin="round"/>
    </symbol>

  </defs>
</svg>