<svg aria-hidden="true" style="position: absolute; width: 0; height: 0; overflow: hidden;" version="1.1" xmlns="http://www.w3.org/2000/svg" xmlns:xlink="http://www.w3.org/1999/xlink">
  <defs>

    <symbol id="logo" viewBox="0 0 40 22">
      <title>United Travel Logo</title>
      <path d="M22.8203 0.384418C13.6603 0.837823 5.48031 4.2975 3.66031 8.46686C2.66031 10.7634 3.91031 13.2473 6.79031 14.7061L6.96031 14.7948L7.57031 14.371L8.18031 13.9471L7.74031 13.7303C3.78031 11.7787 3.61031 8.96954 7.29031 6.26883C14.3103 1.10395 30.0103 0.019723 36.4803 4.25807C36.8503 4.50449 37.5403 5.0466 37.5103 5.07617C37.5003 5.08603 37.2603 5.07617 36.9603 5.05646C26.6803 4.40592 15.1803 8.76255 4.94031 17.1801C3.01031 18.767 0.0903107 21.4875 0.280311 21.517C0.310311 21.5269 1.65031 21.1228 3.25031 20.6299L6.16031 19.733L6.45031 19.3387C10.2503 14.2133 16.0603 10.1425 23.2303 7.59947C24.3203 7.21506 26.6703 6.50538 26.8703 6.50538C26.8903 6.50538 26.4603 6.65323 25.9103 6.84051C19.8303 8.85126 14.3003 12.1729 9.82031 16.5C8.65031 17.6335 6.98031 19.4964 7.06031 19.5753C7.07031 19.5851 7.48031 19.5457 7.98031 19.4964C8.48031 19.4471 8.92031 19.3979 8.97031 19.3979C9.03031 19.3979 9.14031 19.2894 9.37031 18.9937C13.3003 13.819 19.7403 9.5708 27.6003 6.93908C28.4703 6.65323 28.5103 6.65323 27.7103 6.95879C21.5903 9.26524 16.1103 12.7348 12.2903 16.7267C11.4803 17.5744 10.4403 18.8163 10.1903 19.2402L10.1203 19.3584L10.3703 19.3781C10.9403 19.4373 16.7303 19.8315 16.7503 19.8217C16.7603 19.8118 16.7903 19.6443 16.8303 19.457C17.7503 14.2231 21.7903 10.1326 28.7203 7.44177C31.2803 6.44625 34.6103 5.57886 37.2803 5.20431L37.6103 5.15503L37.7603 5.33245C39.0603 6.78137 38.8203 8.388 37.0403 10.1425C33.7703 13.3656 26.6703 15.6031 19.2403 15.7509L18.8203 15.7608L18.4903 16.4113L18.1603 17.0618L19.4303 17.0421C28.7903 16.8647 37.6403 13.2966 39.5503 8.93997C40.0103 7.88531 40.0003 6.63352 39.5303 5.638C37.8703 2.14875 30.9403 -0.0197035 22.8203 0.384418Z" fill="currentColor" />
    </symbol>

    <symbol id="person-circle" viewBox="0 0 512 512">
        <title>ionicons-v5-j</title><path d="M258.9,48C141.92,46.42,46.42,141.92,48,258.9,49.56,371.09,140.91,462.44,253.1,464c117,1.6,212.48-93.9,210.88-210.88C462.44,140.91,371.09,49.56,258.9,48ZM385.32,375.25a4,4,0,0,1-6.14-.32,124.27,124.27,0,0,0-32.35-29.59C321.37,329,289.11,320,256,320s-65.37,9-90.83,25.34a124.24,124.24,0,0,0-32.35,29.58,4,4,0,0,1-6.14.32A175.32,175.32,0,0,1,80,259C78.37,161.69,158.22,80.24,255.57,80S432,158.81,432,256A175.32,175.32,0,0,1,385.32,375.25Z" fill="currentColor" />
        <path d="M256,144c-19.72,0-37.55,7.39-50.22,20.82s-19,32-17.57,51.93C191.11,256,221.52,288,256,288s64.83-32,67.79-71.24c1.48-19.74-4.8-38.14-17.68-51.82C293.39,151.44,275.59,144,256,144Z" fill="currentColor" />
    </symbol>

    <symbol id="language" viewBox="0 0 24 24" fill="currentColor">
        <path d="M0 0h24v24H0V0z" fill="none"/>
        <path d="M11.99 2C6.47 2 2 6.48 2 12s4.47 10 9.99 10C17.52 22 22 17.52 22 12S17.52 2 11.99 2zm6.93 6h-2.95c-.32-1.25-.78-2.45-1.38-3.56 1.84.63 3.37 1.91 4.33 3.56zM12 4.04c.83 1.2 1.48 2.53 1.91 3.96h-3.82c.43-1.43 1.08-2.76 1.91-3.96zM4.26 14C4.1 13.36 4 12.69 4 12s.1-1.36.26-2h3.38c-.08.66-.14 1.32-.14 2s.06 1.34.14 2H4.26zm.82 2h2.95c.32 1.25.78 2.45 1.38 3.56-1.84-.63-3.37-1.9-4.33-3.56zm2.95-8H5.08c.96-1.66 2.49-2.93 4.33-3.56C8.81 5.55 8.35 6.75 8.03 8zM12 19.96c-.83-1.2-1.48-2.53-1.91-3.96h3.82c-.43 1.43-1.08 2.76-1.91 3.96zM14.34 14H9.66c-.09-.66-.16-1.32-.16-2s.07-1.35.16-2h4.68c.09.65.16 1.32.16 2s-.07 1.34-.16 2zm.25 5.56c.6-1.11 1.06-2.31 1.38-3.56h2.95c-.96 1.65-2.49 2.93-4.33 3.56zM16.36 14c.08-.66.14-1.32.14-2s-.06-1.34-.14-2h3.38c.16.64.26 1.31.26 2s-.1 1.36-.26 2h-3.38z"/>
    </symbol>

    <symbol id="star-half" viewBox="0 0 512 512">
      <title>ionicons-v5-e</title>
      <path d="M480,208H308L256,48,204,208H32l140,96L118,464,256,364,394,464,340,304Z" style="fill:none;stroke:currentColor;stroke-linejoin:round;stroke-width:32px"/>
      <polygon points="256 48 256 364 118 464 172 304 32 208 204 208 256 48" fill="currentColor" />
    </symbol>

    <symbol id="star-outline" viewBox="0 0 512 512">
      <title>ionicons-v5-e</title>
      <path d="M480,208H308L256,48,204,208H32l140,96L118,464,256,364,394,464,340,304Z" style="fill:none;stroke:currentColor;stroke-linejoin:round;stroke-width:32px"/>
    </symbol>

    <symbol id="star" viewBox="0 0 512 512">
      <title>ionicons-v5-e</title>
      <path d="M394,480a16,16,0,0,1-9.39-3L256,383.76,127.39,477a16,16,0,0,1-24.55-18.08L153,310.35,23,221.2A16,16,0,0,1,32,192H192.38l48.4-148.95a16,16,0,0,1,30.44,0l48.4,149H480a16,16,0,0,1,9.05,29.2L359,310.35l50.13,148.53A16,16,0,0,1,394,480Z" fill="currentColor"/>
    </symbol>

    <symbol id="email" viewBox="0 0 512 512">
      <title>ionicons-v5-o</title>
      <rect x="48" y="96" width="416" height="320" rx="40" ry="40" style="fill:none;stroke:currentColor;stroke-linecap:round;stroke-linejoin:round;stroke-width:32px"/>
      <polyline points="112 160 256 272 400 160" style="fill:none;stroke:currentColor;stroke-linecap:round;stroke-linejoin:round;stroke-width:32px"/>
    </symbol>

    <symbol id="iphone" viewBox="0 0 512 512">
      <title>ionicons-v5-k</title>
      <rect x="128" y="16" width="256" height="480" rx="48" ry="48" style="fill:none;stroke:currentColor;stroke-linecap:round;stroke-linejoin:round;stroke-width:32px"/>
      <path d="M176,16h24a8,8,0,0,1,8,8h0a16,16,0,0,0,16,16h64a16,16,0,0,0,16-16h0a8,8,0,0,1,8-8h24" style="fill:none;stroke:currentColor;stroke-linecap:round;stroke-linejoin:round;stroke-width:32px"/>
    </symbol>

    <symbol id="people" viewBox="0 0 512 512" fill="currentColor">
      <title>ionicons-v5-j</title>
      <path d="M336,256c-20.56,0-40.44-9.18-56-25.84-15.13-16.25-24.37-37.92-26-61-1.74-24.62,5.77-47.26,21.14-63.76S312,80,336,80c23.83,0,45.38,9.06,60.7,25.52,15.47,16.62,23,39.22,21.26,63.63h0c-1.67,23.11-10.9,44.77-26,61C376.44,246.82,356.57,256,336,256Zm66-88h0Z"/>
      <path d="M467.83,432H204.18a27.71,27.71,0,0,1-22-10.67,30.22,30.22,0,0,1-5.26-25.79c8.42-33.81,29.28-61.85,60.32-81.08C264.79,297.4,299.86,288,336,288c36.85,0,71,9,98.71,26.05,31.11,19.13,52,47.33,60.38,81.55a30.27,30.27,0,0,1-5.32,25.78A27.68,27.68,0,0,1,467.83,432Z"/>
      <path d="M147,260c-35.19,0-66.13-32.72-69-72.93C76.58,166.47,83,147.42,96,133.45,108.86,119.62,127,112,147,112s38,7.66,50.93,21.57c13.1,14.08,19.5,33.09,18,53.52C213.06,227.29,182.13,260,147,260Z"/>
      <path d="M212.66,291.45c-17.59-8.6-40.42-12.9-65.65-12.9-29.46,0-58.07,7.68-80.57,21.62C40.93,316,23.77,339.05,16.84,366.88a27.39,27.39,0,0,0,4.79,23.36A25.32,25.32,0,0,0,41.72,400h111a8,8,0,0,0,7.87-6.57c.11-.63.25-1.26.41-1.88,8.48-34.06,28.35-62.84,57.71-83.82a8,8,0,0,0-.63-13.39C216.51,293.42,214.71,292.45,212.66,291.45Z"/>
    </symbol>

    <symbol id="briefcase" viewBox="0 0 512 512" fill="currentColor">
      <title>ionicons-v5-e</title>
      <path d="M336,80H176a16,16,0,0,0-16,16v16H352V96A16,16,0,0,0,336,80Z" style="fill:none"/>
      <path d="M496,176a64.07,64.07,0,0,0-64-64H384V96a48.05,48.05,0,0,0-48-48H176a48.05,48.05,0,0,0-48,48v16H80a64.07,64.07,0,0,0-64,64v48H496ZM352,112H160V96a16,16,0,0,1,16-16H336a16,16,0,0,1,16,16Z"/>
      <path d="M336,264a24,24,0,0,1-24,24H200a24,24,0,0,1-24-24v-4a4,4,0,0,0-4-4H16V400a64,64,0,0,0,64,64H432a64,64,0,0,0,64-64V256H340a4,4,0,0,0-4,4Z"/>
    </symbol>

    <symbol id="arrow-back" viewBox="0 0 512 512">
      <title>ionicons-v5-a</title>
      <polyline points="244 400 100 256 244 112" style="fill:none;stroke:currentColor;stroke-linecap:round;stroke-linejoin:round;stroke-width:48px"/>
      <line x1="120" y1="256" x2="412" y2="256" style="fill:none;stroke:currentColor;stroke-linecap:round;stroke-linejoin:round;stroke-width:48px"/>
    </symbol>

    <symbol id="google" viewBox="0 0 512 512" fill="currentColor">
      <title>ionicons-v5_logos</title>
      <path d="M473.16,221.48l-2.26-9.59H262.46v88.22H387c-12.93,61.4-72.93,93.72-121.94,93.72-35.66,0-73.25-15-98.13-39.11a140.08,140.08,0,0,1-41.8-98.88c0-37.16,16.7-74.33,41-98.78s61-38.13,97.49-38.13c41.79,0,71.74,22.19,82.94,32.31l62.69-62.36C390.86,72.72,340.34,32,261.6,32h0c-60.75,0-119,23.27-161.58,65.71C58,139.5,36.25,199.93,36.25,256S56.83,369.48,97.55,411.6C141.06,456.52,202.68,480,266.13,480c57.73,0,112.45-22.62,151.45-63.66,38.34-40.4,58.17-96.3,58.17-154.9C475.75,236.77,473.27,222.12,473.16,221.48Z"/>
    </symbol>

    <symbol id="facebook" viewBox="0 0 512 512" fill="currentColor">
      <path d="M480,257.35c0-123.7-100.3-224-224-224s-224,100.3-224,224c0,111.8,81.9,204.47,189,221.29V322.12H164.11V257.35H221V208c0-56.13,33.45-87.16,84.61-87.16,24.51,0,50.15,4.38,50.15,4.38v55.13H327.5c-27.81,0-36.51,17.26-36.51,35v42h62.12l-9.92,64.77H291V478.66C398.1,461.85,480,369.18,480,257.35Z" fill-rule="evenodd"/>
    </symbol>

    <symbol id="eye" viewBox="0 0 512 512">
      <title>ionicons-v5-i</title>
      <path d="M255.66,112c-77.94,0-157.89,45.11-220.83,135.33a16,16,0,0,0-.27,17.77C82.92,340.8,161.8,400,255.66,400,348.5,400,429,340.62,477.45,264.75a16.14,16.14,0,0,0,0-17.47C428.89,172.28,347.8,112,255.66,112Z" style="fill:none;stroke:currentColor;stroke-linecap:round;stroke-linejoin:round;stroke-width:32px"/>
      <circle cx="256" cy="256" r="80" style="fill:none;stroke:currentColor;stroke-miterlimit:10;stroke-width:32px"/>
    </symbol>

    <symbol id="eye-off" viewBox="0 0 512 512" fill="currentColor">
      <title>ionicons-v5-i</title>
      <path d="M432,448a15.92,15.92,0,0,1-11.31-4.69l-352-352A16,16,0,0,1,91.31,68.69l352,352A16,16,0,0,1,432,448Z"/>
      <path d="M255.66,384c-41.49,0-81.5-12.28-118.92-36.5-34.07-22-64.74-53.51-88.7-91l0-.08c19.94-28.57,41.78-52.73,65.24-72.21a2,2,0,0,0,.14-2.94L93.5,161.38a2,2,0,0,0-2.71-.12c-24.92,21-48.05,46.76-69.08,76.92a31.92,31.92,0,0,0-.64,35.54c26.41,41.33,60.4,76.14,98.28,100.65C162,402,207.9,416,255.66,416a239.13,239.13,0,0,0,75.8-12.58,2,2,0,0,0,.77-3.31l-21.58-21.58a4,4,0,0,0-3.83-1A204.8,204.8,0,0,1,255.66,384Z"/>
      <path d="M490.84,238.6c-26.46-40.92-60.79-75.68-99.27-100.53C349,110.55,302,96,255.66,96a227.34,227.34,0,0,0-74.89,12.83,2,2,0,0,0-.75,3.31l21.55,21.55a4,4,0,0,0,3.88,1A192.82,192.82,0,0,1,255.66,128c40.69,0,80.58,12.43,118.55,37,34.71,22.4,65.74,53.88,89.76,91a.13.13,0,0,1,0,.16,310.72,310.72,0,0,1-64.12,72.73,2,2,0,0,0-.15,2.95l19.9,19.89a2,2,0,0,0,2.7.13,343.49,343.49,0,0,0,68.64-78.48A32.2,32.2,0,0,0,490.84,238.6Z"/>
      <path d="M256,160a95.88,95.88,0,0,0-21.37,2.4,2,2,0,0,0-1,3.38L346.22,278.34a2,2,0,0,0,3.38-1A96,96,0,0,0,256,160Z"/>
      <path d="M165.78,233.66a2,2,0,0,0-3.38,1,96,96,0,0,0,115,115,2,2,0,0,0,1-3.38Z"/>
    </symbol>

    <symbol id="error" viewBox="0 0 512 512">
      <title>ionicons-v5-m</title>
      <path d="M448,256c0-106-86-192-192-192S64,150,64,256s86,192,192,192S448,362,448,256Z" style="fill:none;stroke:currentColor;stroke-miterlimit:10;stroke-width:32px"/>
      <line x1="320" y1="320" x2="192" y2="192" style="fill:none;stroke:currentColor;stroke-linecap:round;stroke-linejoin:round;stroke-width:32px"/>
      <line x1="192" y1="320" x2="320" y2="192" style="fill:none;stroke:currentColor;stroke-linecap:round;stroke-linejoin:round;stroke-width:32px"/>
    </symbol>

    <symbol id="warning" viewBox="0 0 512 512">
      <title>ionicons-v5-a</title>
      <path d="M448,256c0-106-86-192-192-192S64,150,64,256s86,192,192,192S448,362,448,256Z" style="fill:none;stroke:currentColor;stroke-miterlimit:10;stroke-width:32px"/>
      <path d="M250.26,166.05,256,288l5.73-121.95a5.74,5.74,0,0,0-5.79-6h0A5.74,5.74,0,0,0,250.26,166.05Z" style="fill:none;stroke:currentColor;stroke-linecap:round;stroke-linejoin:round;stroke-width:32px"/>
      <path d="M256,367.91a20,20,0,1,1,20-20A20,20,0,0,1,256,367.91Z" fill="currentColor"/>
    </symbol>

    <symbol id="lock" viewBox="0 0 512 512">
      <title>ionicons-v5-g</title>
      <path d="M336,208V113a80,80,0,0,0-160,0v95" style="fill:none;stroke:currentColor;stroke-linecap:round;stroke-linejoin:round;stroke-width:32px"/>
      <rect x="96" y="208" width="320" height="272" rx="48" ry="48" style="fill:none;stroke:currentColor;stroke-linecap:round;stroke-linejoin:round;stroke-width:32px"/>
    </symbol>

    <symbol id="upload" viewBox="0 0 512 512">
      <title>ionicons-v5-f</title>
      <path d="M320,367.79h76c55,0,100-29.21,100-83.6s-53-81.47-96-83.6c-8.89-85.06-71-136.8-144-136.8-69,0-113.44,45.79-128,91.2-60,5.7-112,43.88-112,106.4s54,106.4,120,106.4h56" style="fill:none;stroke:currentColor;stroke-linecap:round;stroke-linejoin:round;stroke-width:32px"/>
      <polyline points="320 255.79 256 191.79 192 255.79" style="fill:none;stroke:currentColor;stroke-linecap:round;stroke-linejoin:round;stroke-width:32px"/>
      <line x1="256" y1="448.21" x2="256" y2="207.79" style="fill:none;stroke:currentColor;stroke-linecap:round;stroke-linejoin:round;stroke-width:32px"/>
    </symbol>

    <symbol id="keypad" fill="currentColor" viewBox="0 0 512 512">
      <title>ionicons-v5-g</title>
      <path d="M256,400a48,48,0,1,0,48,48,48,48,0,0,0-48-48Z"/>
      <path d="M256,272a48,48,0,1,0,48,48,48,48,0,0,0-48-48Z"/>
      <path d="M256,144a48,48,0,1,0,48,48,48,48,0,0,0-48-48Z"/>
      <path d="M256,16a48,48,0,1,0,48,48,48,48,0,0,0-48-48Z"/>
      <path d="M384,272a48,48,0,1,0,48,48,48,48,0,0,0-48-48Z"/>
      <path d="M384,144a48,48,0,1,0,48,48,48,48,0,0,0-48-48Z"/>
      <path d="M384,16a48,48,0,1,0,48,48,48,48,0,0,0-48-48Z"/>
      <path d="M128,272a48,48,0,1,0,48,48,48,48,0,0,0-48-48Z"/>
      <path d="M128,144a48,48,0,1,0,48,48,48,48,0,0,0-48-48Z"/>
      <path d="M128,16a48,48,0,1,0,48,48,48,48,0,0,0-48-48Z"/>
    </symbol>

    <symbol id="expand" viewBox="0 0 512 512">
      <title>ionicons-v5-a</title>
      <polyline points="112 184 256 328 400 184" style="fill:none;stroke:currentColor;stroke-linecap:round;stroke-linejoin:round;stroke-width:48px"/>
    </symbol>

    <symbol id="more" viewBox="0 0 512 512">
      <title>ionicons-v5-a</title>
      <polyline points="184 112 328 256 184 400" style="fill:none;stroke:currentColor;stroke-linecap:round;stroke-linejoin:round;stroke-width:48px"/>
    </symbol>

    <symbol id="airplane" viewBox="0 0 512 512">
      <title>ionicons-v5-a</title>
      <path d="M407.72,224c-3.4,0-14.79.1-18,.3l-64.9,1.7a1.83,1.83,0,0,1-1.69-.9L193.55,67.56A9,9,0,0,0,186.89,64H160l73,161a2.35,2.35,0,0,1-2.26,3.35l-121.69,1.8a8.06,8.06,0,0,1-6.6-3.1l-37-45c-3-3.9-8.62-6-13.51-6H33.08c-1.29,0-1.1,1.21-.75,2.43L52.17,249.9a16.3,16.3,0,0,1,0,11.9L32.31,333c-.59,1.95-.52,3,1.77,3H52c8.14,0,9.25-1.06,13.41-6.3l37.7-45.7a8.19,8.19,0,0,1,6.6-3.1l120.68,2.7a2.7,2.7,0,0,1,2.43,3.74L160,448h26.64a9,9,0,0,0,6.65-3.55L323.14,287c.39-.6,2-.9,2.69-.9l63.9,1.7c3.3.2,14.59.3,18,.3C452,288.1,480,275.93,480,256S452.12,224,407.72,224Z" style="fill:none;stroke:currentColor;stroke-linecap:round;stroke-linejoin:round;stroke-width:32px"/>
    </symbol>

    <symbol id="ship" viewBox="0 0 512 512">
      <title>ionicons-v5-h</title>
      <path d="M461.93,261.05c-2-4.76-6.71-7.83-11.67-9.49L263.08,177.08a23.78,23.78,0,0,0-14.17,0l-187,74.52c-5,1.56-9.83,4.77-11.81,9.53s-2.94,9.37-1,15.08L95.63,395.36A7.46,7.46,0,0,0,103.1,400c26.69-1.68,50.31-15.23,68.38-32.5a7.66,7.66,0,0,1,10.49,0C201.29,386,227,400,256,400s54.56-14,73.88-32.54a7.67,7.67,0,0,1,10.5,0c18.07,17.28,41.69,30.86,68.38,32.54a7.45,7.45,0,0,0,7.46-4.61l46.7-119.16C464.9,271.45,463.91,265.82,461.93,261.05Z" style="fill:none;stroke:currentColor;stroke-miterlimit:10;stroke-width:32px"/>
      <path d="M416,473.14a6.84,6.84,0,0,0-3.56-6c-27.08-14.55-51.77-36.82-62.63-48a10.05,10.05,0,0,0-12.72-1.51c-50.33,32.42-111.61,32.44-161.95.05a10.09,10.09,0,0,0-12.82,1.56c-10.77,11.28-35.19,33.3-62.43,47.75A7.15,7.15,0,0,0,96,472.72a6.73,6.73,0,0,0,7.92,7.15c20.85-4.18,41-13.68,60.2-23.83a8.71,8.71,0,0,1,8-.06A185.14,185.14,0,0,0,340,456a8.82,8.82,0,0,1,8.09.06c19.1,10,39.22,19.59,60,23.8a6.72,6.72,0,0,0,7.95-6.71Z" style="fill: currentColor" />
      <path d="M320,96V72a24.07,24.07,0,0,0-24-24H216a24.07,24.07,0,0,0-24,24V96" style="fill:none;stroke:currentColor;stroke-linecap:round;stroke-linejoin:round;stroke-width:32px"/>
      <path d="M416,233V144a48.14,48.14,0,0,0-48-48H144a48.14,48.14,0,0,0-48,48v92" style="fill:none;stroke:currentColor;stroke-linecap:round;stroke-linejoin:round;stroke-width:32px"/>
      <line x1="256" y1="183.6" x2="256" y2="396.45" style="fill:none;stroke:currentColor;stroke-linecap:round;stroke-linejoin:round;stroke-width:32px"/>
    </symbol>

    <symbol id="location-pin" viewBox="0 0 512 512">
      <title>ionicons-v5-n</title>
      <path d="M256,48c-79.5,0-144,61.39-144,137,0,87,96,224.87,131.25,272.49a15.77,15.77,0,0,0,25.5,0C304,409.89,400,272.07,400,185,400,109.39,335.5,48,256,48Z" style="fill:none;stroke:currentColor;stroke-linecap:round;stroke-linejoin:round;stroke-width:32px"/>
      <circle cx="256" cy="192" r="48" style="fill:none;stroke:currentColor;stroke-linecap:round;stroke-linejoin:round;stroke-width:32px"/>
    </symbol>

    <symbol id="checkmark" viewBox="0 0 512 512" fill="currentColor">
      <title>ionicons-v5-e</title>
      <path d="M256,48C141.31,48,48,141.31,48,256s93.31,208,208,208,208-93.31,208-208S370.69,48,256,48ZM364.25,186.29l-134.4,160a16,16,0,0,1-12,5.71h-.27a16,16,0,0,1-11.89-5.3l-57.6-64a16,16,0,1,1,23.78-21.4l45.29,50.32L339.75,165.71a16,16,0,0,1,24.5,20.58Z"/>
    </symbol>

    <symbol id="check" viewBox="0 0 512 512">
      <title>ionicons-v5-e</title>
      <polyline points="416 128 192 384 96 288" style="fill:none;stroke:currentColor;stroke-linecap:round;stroke-linejoin:round;stroke-width:32px"/>
    </symbol>

    <symbol id="ticket" viewBox="0 0 512 512">
        <path fill="none" stroke="currentColor" stroke-miterlimit="10" stroke-width="32" d="M366.05,146a46.7,46.7,0,0,1-2.42-63.42,3.87,3.87,0,0,0-.22-5.26L319.28,33.14a3.89,3.89,0,0,0-5.5,0l-70.34,70.34a23.62,23.62,0,0,0-5.71,9.24h0a23.66,23.66,0,0,1-14.95,15h0a23.7,23.7,0,0,0-9.25,5.71L33.14,313.78a3.89,3.89,0,0,0,0,5.5l44.13,44.13a3.87,3.87,0,0,0,5.26.22,46.69,46.69,0,0,1,65.84,65.84,3.87,3.87,0,0,0,.22,5.26l44.13,44.13a3.89,3.89,0,0,0,5.5,0l180.4-180.39a23.7,23.7,0,0,0,5.71-9.25h0a23.66,23.66,0,0,1,14.95-15h0a23.62,23.62,0,0,0,9.24-5.71l70.34-70.34a3.89,3.89,0,0,0,0-5.5l-44.13-44.13a3.87,3.87,0,0,0-5.26-.22A46.7,46.7,0,0,1,366.05,146Z"/>
        <line fill="none" stroke="currentColor" stroke-miterlimit="10" stroke-width="32" stroke-linecap="round" x1="250.5" y1="140.44" x2="233.99" y2="123.93"/>
        <line fill="none" stroke="currentColor" stroke-miterlimit="10" stroke-width="32" stroke-linecap="round" x1="294.52" y1="184.46" x2="283.51" y2="173.46"/>
        <line fill="none" stroke="currentColor" stroke-miterlimit="10" stroke-width="32" stroke-linecap="round" x1="338.54" y1="228.49" x2="327.54" y2="217.48"/>
        <line fill="none" stroke="currentColor" stroke-miterlimit="10" stroke-width="32" stroke-linecap="round" x1="388.07" y1="278.01" x2="371.56" y2="261.5"/>
    </symbol>

    <symbol id="clock" viewBox="0 0 512 512">
      <title>ionicons-v5-c</title>
      <path d="M256,64C150,64,64,150,64,256s86,192,192,192,192-86,192-192S362,64,256,64Z" style="fill:none;stroke:currentColor;stroke-miterlimit:10;stroke-width:32px"/>
      <polyline points="256 128 256 272 352 272" style="fill:none;stroke:currentColor;stroke-linecap:round;stroke-linejoin:round;stroke-width:32px"/>
    </symbol>

    <symbol id="bus" viewBox="0 0 512 512">
      <title>ionicons-v5-h</title>
      <rect x="80" y="112" width="352" height="192" rx="32" ry="32" style="fill:none;stroke:currentColor;stroke-linecap:round;stroke-linejoin:round;stroke-width:32px"/>
      <rect x="80" y="304" width="352" height="128" rx="32" ry="32" style="fill:none;stroke:currentColor;stroke-linecap:round;stroke-linejoin:round;stroke-width:32px"/>
      <path d="M400,112H112A32.09,32.09,0,0,1,80,80h0a32.09,32.09,0,0,1,32-32H400a32.09,32.09,0,0,1,32,32h0A32.09,32.09,0,0,1,400,112Z" style="fill:none;stroke:currentColor;stroke-linecap:round;stroke-linejoin:round;stroke-width:32px"/>
      <path d="M144,432v22a10,10,0,0,1-10,10H106a10,10,0,0,1-10-10V432Z" style="fill:none;stroke:currentColor;stroke-linecap:round;stroke-linejoin:round;stroke-width:32px"/>
      <path d="M416,432v22a10,10,0,0,1-10,10H378a10,10,0,0,1-10-10V432Z" style="fill:none;stroke:currentColor;stroke-linecap:round;stroke-linejoin:round;stroke-width:32px"/>
      <circle cx="368" cy="368" r="16" style="fill:none;stroke:currentColor;stroke-linejoin:round;stroke-width:32px"/>
      <circle cx="144" cy="368" r="16" style="fill:none;stroke:currentColor;stroke-linejoin:round;stroke-width:32px"/>
      <line x1="256" y1="112" x2="256" y2="304" style="fill:none;stroke:currentColor;stroke-linecap:round;stroke-linejoin:round;stroke-width:32px"/>
      <line x1="80" y1="80" x2="80" y2="368" style="fill:none;stroke:currentColor;stroke-linecap:round;stroke-linejoin:round;stroke-width:32px"/>
      <line x1="432" y1="80" x2="432" y2="368" style="fill:none;stroke:currentColor;stroke-linecap:round;stroke-linejoin:round;stroke-width:32px"/>
    </symbol>

    <symbol id="train" viewBox="0 0 512 512">
      <title>ionicons-v5-q</title>
      <path d="M344,48H320a16,16,0,0,0-16-16H208a16,16,0,0,0-16,16H168a56.16,56.16,0,0,0-56,56V351c0,35.3,144,65,144,65s144-29.7,144-65V104A56,56,0,0,0,344,48ZM256,352a48,48,0,1,1,48-48A48,48,0,0,1,256,352Zm96-160a16,16,0,0,1-16,16H176a16,16,0,0,1-16-16V128a16,16,0,0,1,16-16H336a16,16,0,0,1,16,16Z" style="fill:none;stroke:currentColor;stroke-linecap:round;stroke-linejoin:round;stroke-width:32px"/>
      <line x1="144" y1="464" x2="368" y2="464" style="fill:none;stroke:currentColor;stroke-linecap:round;stroke-linejoin:round;stroke-width:32px"/>
      <line x1="336" y1="432" x2="384" y2="480" style="fill:none;stroke:currentColor;stroke-linecap:round;stroke-linejoin:round;stroke-width:32px"/>
      <line x1="176" y1="432" x2="128" y2="480" style="fill:none;stroke:currentColor;stroke-linecap:round;stroke-linejoin:round;stroke-width:32px"/>
    </symbol>

    <symbol id="bed" viewBox="0 0 512 512">
      <title>ionicons-v5-g</title>
      <path d="M384,240H96V136a40.12,40.12,0,0,1,40-40H376a40.12,40.12,0,0,1,40,40V240Z" style="fill:none;stroke:currentColor;stroke-linecap:round;stroke-linejoin:round;stroke-width:32px"/>
      <path d="M48,416V304a64.19,64.19,0,0,1,64-64H400a64.19,64.19,0,0,1,64,64V416" style="fill:none;stroke:currentColor;stroke-linecap:round;stroke-linejoin:round;stroke-width:32px"/>
      <path d="M48,416v-8a24.07,24.07,0,0,1,24-24H440a24.07,24.07,0,0,1,24,24v8" style="fill:none;stroke:currentColor;stroke-linecap:round;stroke-linejoin:round;stroke-width:32px"/>
      <path d="M112,240V224a32.09,32.09,0,0,1,32-32h80a32.09,32.09,0,0,1,32,32v16" style="fill:none;stroke:currentColor;stroke-linecap:round;stroke-linejoin:round;stroke-width:32px"/>
      <path d="M256,240V224a32.09,32.09,0,0,1,32-32h80a32.09,32.09,0,0,1,32,32v16" style="fill:none;stroke:currentColor;stroke-linecap:round;stroke-linejoin:round;stroke-width:32px"/>
    </symbol>

    <symbol id="restaurant" viewBox="0 0 512 512">
      <title>ionicons-v5-p</title>
      <path d="M57.49,47.74,425.92,416.17a37.28,37.28,0,0,1,0,52.72h0a37.29,37.29,0,0,1-52.72,0l-90-91.55A32,32,0,0,1,274,354.91v-5.53a32,32,0,0,0-9.52-22.78l-11.62-10.73a32,32,0,0,0-29.8-7.44h0A48.53,48.53,0,0,1,176.5,295.8L91.07,210.36C40.39,159.68,21.74,83.15,57.49,47.74Z" style="fill:none;stroke:currentColor;stroke-linejoin:round;stroke-width:32px"/>
      <path d="M400,32l-77.25,77.25A64,64,0,0,0,304,154.51v14.86a16,16,0,0,1-4.69,11.32L288,192" style="fill:none;stroke:currentColor;stroke-linecap:round;stroke-linejoin:round;stroke-width:32px"/>
      <path d="M320,224l11.31-11.31A16,16,0,0,1,342.63,208h14.86a64,64,0,0,0,45.26-18.75L480,112" style="fill:none;stroke:currentColor;stroke-linecap:round;stroke-linejoin:round;stroke-width:32px"/>
      <line x1="440" y1="72" x2="360" y2="152" style="fill:none;stroke:currentColor;stroke-linecap:round;stroke-linejoin:round;stroke-width:32px"/>
      <path d="M200,368,100.28,468.28a40,40,0,0,1-56.56,0h0a40,40,0,0,1,0-56.56L128,328" style="fill:none;stroke:currentColor;stroke-linecap:round;stroke-linejoin:round;stroke-width:32px"/>
    </symbol>

    <symbol id="wine" viewBox="0 0 512 512">
      <title>ionicons-v5-r</title>
      <path d="M398.57,80H113.43V96S87.51,272,256,272,398.57,96,398.57,96Z" style="fill:none;stroke:currentColor;stroke-linejoin:round;stroke-width:32px"/>
      <line x1="256" y1="272" x2="256" y2="432" style="fill:none;stroke:currentColor;stroke-linejoin:round;stroke-width:32px"/>
      <line x1="352" y1="432" x2="160" y2="432" style="fill:none;stroke:currentColor;stroke-linecap:round;stroke-linejoin:round;stroke-width:32px"/>
      <line x1="112" y1="160" x2="400" y2="160" style="fill:none;stroke:currentColor;stroke-linejoin:round;stroke-width:32px"/>
    </symbol>

    <symbol id="navigation-circle" viewBox="0 0 512 512">
      <title>ionicons-v5-f</title>
      <path d="M336.76,161,150.23,243.35c-10.47,4.8-6.95,20.67,4.57,20.67H244a4,4,0,0,1,4,4V357.2c0,11.52,16,15,20.78,4.56L351,175.24A10.73,10.73,0,0,0,336.76,161Z" fill="currentColor"/>
      <path d="M448,256c0-106-86-192-192-192S64,150,64,256s86,192,192,192S448,362,448,256Z" style="fill:none;stroke:currentColor;stroke-miterlimit:10;stroke-width:32px"/>
    </symbol>

    <symbol id="plus" viewBox="0 0 512 512">
      <title>ionicons-v5-a</title>
      <path d="M448,256c0-106-86-192-192-192S64,150,64,256s86,192,192,192S448,362,448,256Z" style="fill:none;stroke:currentColor;stroke-miterlimit:10;stroke-width:32px"/>
      <line x1="256" y1="176" x2="256" y2="336" style="fill:none;stroke:currentColor;stroke-linecap:round;stroke-linejoin:round;stroke-width:32px"/>
      <line x1="336" y1="256" x2="176" y2="256" style="fill:none;stroke:currentColor;stroke-linecap:round;stroke-linejoin:round;stroke-width:32px"/>
    </symbol>

    <symbol id="minus" viewBox="0 0 512 512">
      <title>ionicons-v5-e</title>
      <path d="M448,256c0-106-86-192-192-192S64,150,64,256s86,192,192,192S448,362,448,256Z" style="fill:none;stroke:currentColor;stroke-miterlimit:10;stroke-width:32px"/>
      <line x1="336" y1="256" x2="176" y2="256" style="fill:none;stroke:currentColor;stroke-linecap:round;stroke-linejoin:round;stroke-width:32px"/>
    </symbol>

    <symbol id="amex" viewBox="0 0 44 32" fill="none">
      <path d="M9.2 4.48047C7.435 4.48047 6 5.91547 6 7.68047V24.3205C6 26.0855 7.435 27.5205 9.2 27.5205H34.8C36.565 27.5205 38 26.0855 38 24.3205V7.68047C38 5.91547 36.565 4.48047 34.8 4.48047H9.2ZM11.48 12.7405H13.26L15.6 17.9805V12.7405H17.7L19.34 16.4005L20.98 12.7405H23.12V18.1805H21.78V14.2005L19.96 18.1805H18.74L16.94 14.1405V18.1805H14.24L13.72 16.9805H11.04L10.52 18.1805H9.1L11.48 12.7405ZM24.88 12.7405H30.16L31.64 14.4405L33.18 12.7405H34.88L32.48 15.4005L34.88 18.2005H33.18L31.6 16.3805L29.98 18.1805H24.88V12.7405ZM12.34 13.8805L11.54 15.8005H13.18L12.34 13.8805ZM26.2 13.9005V14.9205H29.16V15.9605H26.2V17.0405H29.3L30.76 15.4005L29.46 13.9205L26.2 13.9005Z" fill="#2E77BB"/>
    </symbol>

    <symbol id="mastercard" viewBox="0 0 44 32" fill="none">
      <path d="M34.9689 3.75977H10.0309C8.05755 3.75977 6.46655 5.35077 6.46655 7.3241V25.1334C6.46655 27.1068 8.05755 28.6978 10.0309 28.6978H34.9689C36.9422 28.6978 38.5332 27.1068 38.5332 25.1334V7.3241C38.5332 5.35077 36.9422 3.75977 34.9689 3.75977ZM28.0499 22.6668C25.7559 22.6668 23.7209 21.5321 22.4999 19.7808C21.2789 21.5321 19.2439 22.6668 16.9499 22.6668C13.2006 22.6668 10.1666 19.6328 10.1666 15.8834C10.1666 12.1341 13.2006 9.1001 16.9499 9.1001C19.2439 9.1001 21.2789 10.2348 22.4999 11.9861C23.7209 10.2348 25.7559 9.1001 28.0499 9.1001C31.7992 9.1001 34.8332 12.1341 34.8332 15.8834C34.8332 19.6328 31.7992 22.6668 28.0499 22.6668Z" fill="black"/>
    </symbol>

    <symbol id="visa" viewBox="0 0 44 32" fill="none">
      <path d="M9.2 4.48047C7.435 4.48047 6 5.91547 6 7.68047V24.3205C6 26.0855 7.435 27.5205 9.2 27.5205H34.8C36.565 27.5205 38 26.0855 38 24.3205V7.68047C38 5.91547 36.565 4.48047 34.8 4.48047H9.2ZM25 12.4205C25.8725 12.4205 26.78 12.7805 26.78 12.7805L26.46 14.3405C26.46 14.3405 25.77 13.8805 25.16 13.8805C24.22 13.8805 23.88 14.188 23.88 14.6005C23.88 15.408 26.5 15.5505 26.5 17.3605C26.5 18.8655 24.6325 19.9005 23.28 19.9005C21.9275 19.9005 21.22 19.5005 21.22 19.5005L21.56 17.9805C21.56 17.9805 22.2675 18.4005 23.36 18.4005C24.45 18.4005 24.6 17.9355 24.6 17.7405C24.6 16.5855 22 16.908 22 14.6605C22 13.418 23.015 12.4205 25 12.4205ZM16.54 12.5605H18.56L15.68 19.6805H13.6L12.08 13.9205C12.08 13.9205 13.6775 14.7355 14.66 16.9405C14.7025 17.208 14.82 17.6405 14.82 17.6405L16.54 12.5605ZM19.3 12.5605H21.22L20.08 19.6805H18.18L19.3 12.5605ZM29.56 12.5605H31.54L33 19.6805H31.28L31.08 18.6605H28.72L28.34 19.6805H26.46L29.56 12.5605ZM10 12.5805H12.92C13.665 12.5805 13.94 13.2805 13.94 13.2805L14.58 16.5205C13.715 13.7305 10 12.5805 10 12.5805ZM30.28 14.6205L29.24 17.3005H30.8L30.28 14.6205Z" fill="#1A1F71"/>
    </symbol>

    <symbol id="discover" viewBox="0 0 44 32" fill="none">
      <path d="M9.2 4.48047C7.435 4.48047 6 5.91547 6 7.68047V24.3205C6 26.0855 7.435 27.5205 9.2 27.5205H34.8C36.565 27.5205 38 26.0855 38 24.3205V7.68047C38 5.91547 36.565 4.48047 34.8 4.48047H9.2ZM19.56 14.0205C19.8925 14.0205 20.18 14.108 20.52 14.2805V15.1805C20.1975 14.8655 19.9075 14.7405 19.54 14.7405C18.815 14.7405 18.24 15.3405 18.24 16.1005C18.24 16.903 18.8 17.4605 19.58 17.4605C19.93 17.4605 20.21 17.3305 20.52 17.0205V17.9405C20.1675 18.1055 19.8725 18.1605 19.54 18.1605C18.3625 18.1605 17.44 17.2655 17.44 16.1005C17.44 14.948 18.3875 14.0205 19.56 14.0205ZM15.9 14.0405C16.335 14.0405 16.7275 14.1905 17.06 14.4805L16.66 15.0205C16.4575 14.7955 16.2725 14.7005 16.04 14.7005C15.7075 14.7005 15.46 14.8905 15.46 15.1405C15.46 15.3555 15.595 15.468 16.06 15.6405C16.94 15.963 17.2 16.2505 17.2 16.8805C17.2 17.648 16.6425 18.1805 15.84 18.1805C15.2525 18.1805 14.8175 17.943 14.46 17.4205L14.96 16.9405C15.1375 17.2855 15.4325 17.4605 15.8 17.4605C16.145 17.4605 16.4 17.223 16.4 16.9005C16.4 16.518 16.06 16.438 15.64 16.2805C14.9175 16.008 14.66 15.7255 14.66 15.1805C14.66 14.5305 15.1975 14.0405 15.9 14.0405ZM22.82 14.0405C23.9625 14.0405 24.88 14.958 24.88 16.1005C24.88 17.243 23.9625 18.1805 22.82 18.1805C21.6775 18.1805 20.74 17.243 20.74 16.1005C20.74 14.958 21.6775 14.0405 22.82 14.0405ZM9.78 14.1205H10.92C12.175 14.1205 13.04 14.9305 13.04 16.1005C13.04 16.718 12.645 18.0805 10.92 18.0805H9.78V14.1205ZM13.4 14.1205H14.18V18.0805H13.4V14.1205ZM24.74 14.1205H25.58L26.64 16.7805L27.72 14.1205H28.56L26.84 18.1805H26.42L24.74 14.1205ZM28.9 14.1205H31.1V14.7805H29.68V15.6605H31.04V16.3405H29.68V17.4005H31.1V18.0805H28.9V14.1205ZM31.6 14.1205H32.76C33.6525 14.1205 34.16 14.538 34.16 15.2805C34.16 15.888 33.8425 16.3005 33.26 16.4205L34.5 18.0805H33.54L32.48 16.4805H32.38V18.0805H31.6V14.1205ZM32.38 14.7405V15.9405H32.6C33.0925 15.9405 33.36 15.718 33.36 15.3205C33.36 14.9355 33.1025 14.7405 32.62 14.7405H32.38ZM10.56 14.7805V17.4005H10.76C12.1525 17.4005 12.24 16.398 12.24 16.1005C12.24 15.478 11.8725 14.7805 10.82 14.7805H10.56Z" fill="black"/>
    </symbol>

    <symbol id="apple-pay" viewBox="0 0 44 32" fill="none">
      <path d="M36.0447 5H8.9553C8.84248 5 8.72946 5 8.61683 5.00065C8.52163 5.00133 8.42665 5.00238 8.33167 5.00495C8.12453 5.01052 7.91561 5.02267 7.71105 5.05922C7.50323 5.09639 7.30984 5.15704 7.12117 5.25252C6.9357 5.34628 6.7659 5.46891 6.61874 5.61525C6.47153 5.76158 6.34816 5.93009 6.25385 6.11465C6.15778 6.30219 6.09673 6.49448 6.05959 6.70122C6.02263 6.90461 6.01032 7.11225 6.00474 7.31793C6.00219 7.41235 6.00109 7.50676 6.00047 7.60115C5.99982 7.71334 6.00004 7.82545 6.00004 7.93784V23.0624C6.00004 23.1748 5.99982 23.2867 6.00047 23.3991C6.00109 23.4935 6.00219 23.5879 6.00474 23.6823C6.01032 23.8878 6.02263 24.0954 6.05959 24.2988C6.09673 24.5056 6.15778 24.6978 6.25385 24.8854C6.34816 25.0699 6.47153 25.2387 6.61874 25.3848C6.7659 25.5313 6.9357 25.654 7.12117 25.7475C7.30984 25.8432 7.50323 25.9039 7.71105 25.941C7.91561 25.9773 8.12453 25.9897 8.33167 25.9953C8.42665 25.9974 8.52163 25.9987 8.61683 25.9991C8.72946 26 8.84248 26 8.9553 26H36.0447C36.1574 26 36.2704 26 36.383 25.9991C36.478 25.9987 36.5729 25.9974 36.6684 25.9953C36.8751 25.9897 37.0839 25.9773 37.289 25.941C37.4965 25.9039 37.69 25.8432 37.8787 25.7475C38.0643 25.654 38.2336 25.5313 38.3811 25.3848C38.5281 25.2387 38.6514 25.0699 38.746 24.8854C38.8423 24.6978 38.9033 24.5056 38.9402 24.2988C38.9772 24.0954 38.9892 23.8878 38.9948 23.6823C38.9974 23.5879 38.9987 23.4935 38.9991 23.3991C39 23.2867 39 23.1748 39 23.0624V7.93784C39 7.82545 39 7.71334 38.9991 7.60115C38.9987 7.50676 38.9974 7.41235 38.9948 7.31793C38.9892 7.11225 38.9772 6.90461 38.9402 6.70122C38.9033 6.49448 38.8423 6.30219 38.746 6.11465C38.6514 5.93009 38.5281 5.76158 38.3811 5.61525C38.2336 5.46891 38.0643 5.34628 37.8787 5.25252C37.69 5.15704 37.4965 5.09639 37.289 5.05922C37.084 5.02267 36.8751 5.01052 36.6684 5.00495C36.5729 5.00238 36.478 5.00133 36.383 5.00065C36.2704 5 36.1574 5 36.0447 5Z" fill="black"/>
      <path d="M36.0448 5.7002L36.378 5.70083C36.4683 5.70146 36.5586 5.70243 36.6493 5.70489C36.8072 5.70913 36.992 5.71764 37.1641 5.74831C37.3138 5.77511 37.4393 5.81585 37.5598 5.87681C37.6787 5.93688 37.7877 6.0156 37.8828 6.11003C37.9783 6.20509 38.0576 6.31358 38.1188 6.4331C38.1798 6.55191 38.2205 6.67609 38.2473 6.82595C38.2781 6.99523 38.2866 7.17934 38.291 7.33727C38.2934 7.42641 38.2946 7.51555 38.295 7.60681C38.2959 7.71718 38.2959 7.82748 38.2959 7.93807V23.0626C38.2959 23.1732 38.2959 23.2833 38.295 23.396C38.2946 23.4851 38.2934 23.5743 38.2909 23.6636C38.2866 23.8213 38.2781 24.0053 38.2469 24.1766C38.2205 24.3244 38.1798 24.4486 38.1185 24.568C38.0574 24.6872 37.9783 24.7956 37.8832 24.89C37.7875 24.9852 37.6789 25.0636 37.5586 25.1243C37.439 25.1849 37.3137 25.2256 37.1655 25.2521C36.9899 25.2833 36.7974 25.2918 36.6525 25.2957C36.5613 25.2978 36.4705 25.299 36.3776 25.2994C36.2668 25.3003 36.1556 25.3003 36.0448 25.3003H8.95533C8.95386 25.3003 8.95242 25.3003 8.95093 25.3003C8.84139 25.3003 8.73164 25.3003 8.62011 25.2994C8.52918 25.299 8.43845 25.2978 8.35072 25.2958C8.20247 25.2918 8.0099 25.2833 7.83567 25.2523C7.6862 25.2256 7.5609 25.1849 7.43976 25.1235C7.32056 25.0634 7.21204 24.985 7.11632 24.8897C7.02134 24.7954 6.94241 24.6874 6.88138 24.568C6.8203 24.4487 6.77943 24.3241 6.75255 24.1746C6.72149 24.0036 6.71296 23.8203 6.70869 23.6637C6.70626 23.574 6.70524 23.4844 6.70466 23.3953L6.70422 23.1321L6.70424 23.0626V7.93807L6.70422 7.86858L6.70464 7.60598C6.70524 7.5163 6.70626 7.42665 6.70869 7.33705C6.71296 7.18027 6.72149 6.99692 6.75281 6.82454C6.77945 6.67632 6.8203 6.55175 6.8817 6.43187C6.94225 6.31338 7.02132 6.20521 7.1168 6.11033C7.2119 6.01575 7.32078 5.93714 7.44074 5.87649C7.56058 5.81583 7.68612 5.77511 7.83559 5.74837C8.00781 5.71762 8.19264 5.70913 8.35094 5.70487C8.44118 5.70243 8.53141 5.70146 8.62097 5.70085L8.95533 5.7002H36.0448" fill="white"/>
      <path d="M15.0088 12.0628C15.2914 11.7115 15.4831 11.2398 15.4326 10.7578C15.0189 10.7783 14.5142 11.0291 14.222 11.3806C13.9596 11.6817 13.7274 12.1732 13.7879 12.635C14.2522 12.675 14.7161 12.4043 15.0088 12.0628Z" fill="black"/>
      <path d="M15.4273 12.7253C14.753 12.6854 14.1797 13.1057 13.8577 13.1057C13.5355 13.1057 13.0424 12.7454 12.5091 12.7552C11.8149 12.7653 11.1708 13.1554 10.8186 13.7759C10.094 15.0172 10.6273 16.8585 11.3319 17.8695C11.6741 18.3697 12.0864 18.9204 12.6298 18.9006C13.1431 18.8806 13.3444 18.5702 13.9684 18.5702C14.5919 18.5702 14.7732 18.9006 15.3166 18.8906C15.8802 18.8806 16.2325 18.3902 16.5746 17.8895C16.9672 17.3194 17.1278 16.7689 17.1379 16.7386C17.1278 16.7286 16.0513 16.3181 16.0413 15.0871C16.0311 14.0564 16.8865 13.5661 16.9268 13.5357C16.4437 12.8255 15.689 12.7454 15.4273 12.7253Z" fill="black"/>
      <path d="M21.2985 11.3301C22.7641 11.3301 23.7846 12.3343 23.7846 13.7963C23.7846 15.2635 22.7431 16.2729 21.2618 16.2729H19.6391V18.838H18.4667V11.3301H21.2985V11.3301ZM19.6391 15.2947H20.9843C22.005 15.2947 22.586 14.7485 22.586 13.8015C22.586 12.8546 22.005 12.3135 20.9896 12.3135H19.6391V15.2947V15.2947Z" fill="black"/>
      <path d="M24.0909 17.2824C24.0909 16.3249 24.829 15.7371 26.1376 15.6642L27.645 15.5758V15.1544C27.645 14.5456 27.2315 14.1814 26.5407 14.1814C25.8863 14.1814 25.478 14.4935 25.3786 14.9827H24.3108C24.3736 13.994 25.2215 13.2656 26.5825 13.2656C27.9172 13.2656 28.7703 13.968 28.7703 15.0659V18.838H27.6868V17.9379H27.6608C27.3415 18.5467 26.6453 18.9317 25.923 18.9317C24.8447 18.9317 24.0909 18.2657 24.0909 17.2824ZM27.645 16.7881V16.3563L26.2893 16.4395C25.6141 16.4863 25.232 16.7829 25.232 17.2512C25.232 17.7298 25.6298 18.042 26.237 18.042C27.0273 18.042 27.645 17.5008 27.645 16.7881Z" fill="black"/>
      <path d="M29.7932 20.8514V19.9408C29.8768 19.9616 30.0652 19.9616 30.1595 19.9616C30.6829 19.9616 30.9656 19.7431 31.1382 19.1812C31.1382 19.1708 31.2378 18.8482 31.2378 18.843L29.2488 13.3643H30.4735L31.866 17.8181H31.8868L33.2792 13.3643H34.4726L32.4102 19.1239C31.9393 20.4508 31.3949 20.8774 30.2538 20.8774C30.1595 20.8774 29.8768 20.8669 29.7932 20.8514Z" fill="black"/>
    </symbol>

    <symbol id="google-pay" viewBox="0 0 44 32" fill="none">
      <path d="M31.012 5.47656H13.959C8.62992 5.47656 4.26978 9.96443 4.26978 15.4496C4.26978 20.9348 8.62992 25.4227 13.959 25.4227H31.012C36.3411 25.4227 40.7012 20.9348 40.7012 15.4496C40.7012 9.96443 36.3411 5.47656 31.012 5.47656Z" fill="white"/>
      <path d="M31.012 6.28438C32.2086 6.28438 33.3713 6.52872 34.4662 7.00743C35.5272 7.47117 36.4767 8.13438 37.3003 8.9771C38.119 9.81982 38.7634 10.8022 39.2139 11.8942C39.679 13.0212 39.9164 14.2179 39.9164 15.4496C39.9164 16.6813 39.679 17.878 39.2139 19.005C38.7634 20.097 38.119 21.0744 37.3003 21.9221C36.4816 22.7648 35.5272 23.428 34.4662 23.8918C33.3713 24.3705 32.2086 24.6148 31.012 24.6148H13.959C12.7624 24.6148 11.5997 24.3705 10.5048 23.8918C9.44382 23.428 8.49427 22.7648 7.67069 21.9221C6.85195 21.0794 6.20762 20.097 5.75707 19.005C5.29199 17.878 5.0546 16.6813 5.0546 15.4496C5.0546 14.2179 5.29199 13.0212 5.75707 11.8942C6.20762 10.8022 6.85195 9.82481 7.67069 8.9771C8.48943 8.13438 9.44382 7.47117 10.5048 7.00743C11.5997 6.52872 12.7624 6.28438 13.959 6.28438H31.012ZM31.012 5.47656H13.959C8.62992 5.47656 4.26978 9.96443 4.26978 15.4496C4.26978 20.9348 8.62992 25.4227 13.959 25.4227H31.012C36.3411 25.4227 40.7012 20.9348 40.7012 15.4496C40.7012 9.96443 36.3411 5.47656 31.012 5.47656Z" fill="#3C4043"/>
      <path d="M21.6424 16.1576V19.1745H20.7122V11.7246H23.1781C23.803 11.7246 24.3359 11.939 24.772 12.3679C25.2177 12.7967 25.4405 13.3203 25.4405 13.9386C25.4405 14.5719 25.2177 15.0955 24.772 15.5194C24.3408 15.9432 23.8079 16.1526 23.1781 16.1526H21.6424V16.1576ZM21.6424 12.6421V15.2401H23.1975C23.5657 15.2401 23.8757 15.1105 24.1179 14.8561C24.365 14.6018 24.491 14.2927 24.491 13.9436C24.491 13.5995 24.365 13.2954 24.1179 13.0411C23.8757 12.7768 23.5705 12.6471 23.1975 12.6471H21.6424V12.6421Z" fill="#3C4043"/>
      <path d="M27.8725 13.9092C28.5604 13.9092 29.103 14.0987 29.5002 14.4776C29.8975 14.8566 30.0961 15.3752 30.0961 16.0334V19.1749H29.2096V18.4669H29.1708C28.7881 19.0503 28.2746 19.3395 27.6351 19.3395C27.0876 19.3395 26.6322 19.1749 26.264 18.8409C25.8959 18.5068 25.7118 18.0929 25.7118 17.5942C25.7118 17.0656 25.9055 16.6468 26.2931 16.3376C26.6807 16.0235 27.1991 15.8689 27.8434 15.8689C28.3957 15.8689 28.8511 15.9736 29.2047 16.183V15.9636C29.2047 15.6295 29.0788 15.3503 28.822 15.1159C28.5652 14.8816 28.2649 14.7669 27.9209 14.7669C27.4025 14.7669 26.9907 14.9913 26.6904 15.445L25.8716 14.9165C26.3222 14.2433 26.9907 13.9092 27.8725 13.9092ZM26.671 17.6092C26.671 17.8585 26.7727 18.0679 26.9811 18.2325C27.1845 18.3971 27.4268 18.4818 27.7029 18.4818C28.0953 18.4818 28.4441 18.3322 28.7493 18.033C29.0545 17.7338 29.2096 17.3848 29.2096 16.9809C28.9189 16.7465 28.5168 16.6268 27.9984 16.6268C27.6205 16.6268 27.3056 16.7216 27.0537 16.9061C26.797 17.1006 26.671 17.3349 26.671 17.6092Z" fill="#3C4043"/>
      <path d="M35.154 14.0732L32.0534 21.4134H31.0942L32.2472 18.8453L30.2028 14.0732H31.2153L32.6881 17.7334H32.7075L34.1415 14.0732H35.154Z" fill="#3C4043"/>
      <path d="M17.9426 15.5494C17.9426 15.2373 17.9155 14.9386 17.8651 14.6514H13.9662V16.2969L16.2116 16.2974C16.1206 16.8449 15.8275 17.3117 15.3784 17.6228V18.6904H16.715C17.4954 17.947 17.9426 16.8479 17.9426 15.5494Z" fill="#4285F4"/>
      <path d="M15.3787 17.6234C15.0066 17.8817 14.5275 18.0328 13.967 18.0328C12.8842 18.0328 11.9657 17.2818 11.6367 16.2695H10.2579V17.3706C10.941 18.7658 12.345 19.7232 13.967 19.7232C15.088 19.7232 16.0298 19.3437 16.7153 18.6905L15.3787 17.6234Z" fill="#34A853"/>
      <path d="M11.5069 15.4525C11.5069 15.1683 11.553 14.8935 11.6368 14.6352V13.5342H10.258C9.97555 14.1111 9.81665 14.7624 9.81665 15.4525C9.81665 16.1426 9.97604 16.7939 10.258 17.3708L11.6368 16.2698C11.553 16.0115 11.5069 15.7367 11.5069 15.4525Z" fill="#FABB05"/>
      <path d="M13.967 12.8721C14.5788 12.8721 15.1268 13.089 15.5594 13.5128L16.7439 12.2946C16.0245 11.605 15.0866 11.1816 13.967 11.1816C12.3455 11.1816 10.941 12.1391 10.2579 13.5343L11.6367 14.6353C11.9657 13.623 12.8842 12.8721 13.967 12.8721Z" fill="#E94235"/>
    </symbol>

    <symbol id="credit-card" viewBox="0 0 512 512">
      <title>ionicons-v5-d</title>
      <rect x="48" y="96" width="416" height="320" rx="56" ry="56" style="fill:none;stroke:currentColor;stroke-linecap:round;stroke-linejoin:round;stroke-width:32px"/>
      <line x1="48" y1="192" x2="464" y2="192" style="fill:none;stroke:currentColor;stroke-linejoin:round;stroke-width:60px"/>
      <rect x="128" y="300" width="48" height="20" style="fill:none;stroke:currentColor;stroke-linejoin:round;stroke-width:60px"/>
    </symbol>

    <symbol id="person-plus" viewBox="0 0 512 512">
      <title>ionicons-v5-j</title><path d="M376,144c-3.92,52.87-44,96-88,96s-84.15-43.12-88-96c-4-55,35-96,88-96S380,90,376,144Z" style="fill:none;stroke:currentColor;stroke-linecap:round;stroke-linejoin:round;stroke-width:32px"/>
      <path d="M288,304c-87,0-175.3,48-191.64,138.6-2,10.92,4.21,21.4,15.65,21.4H464c11.44,0,17.62-10.48,15.65-21.4C463.3,352,375,304,288,304Z" style="fill:none;stroke:currentColor;stroke-miterlimit:10;stroke-width:32px"/>
      <line x1="88" y1="176" x2="88" y2="288" style="fill:none;stroke:currentColor;stroke-linecap:round;stroke-linejoin:round;stroke-width:32px"/>
      <line x1="144" y1="232" x2="32" y2="232" style="fill:none;stroke:currentColor;stroke-linecap:round;stroke-linejoin:round;stroke-width:32px"/>
    </symbol>

    <symbol id="calendar" viewBox="0 0 512 512">
      <rect fill="none" stroke="currentColor" stroke-linejoin="round" stroke-width="32" x="48" y="80" width="416" height="384" rx="48"/>
      <circle cx="296" cy="232" r="24" fill="currentColor" />
      <circle cx="376" cy="232" r="24" fill="currentColor" />
      <circle cx="296" cy="312" r="24" fill="currentColor" />
      <circle cx="376" cy="312" r="24" fill="currentColor" />
      <circle cx="136" cy="312" r="24" fill="currentColor" />
      <circle cx="216" cy="312" r="24" fill="currentColor" />
      <circle cx="136" cy="392" r="24" fill="currentColor" />
      <circle cx="216" cy="392" r="24" fill="currentColor" />
      <circle cx="296" cy="392" r="24" fill="currentColor" />
      <line fill="none" stroke="currentColor" stroke-linejoin="round" stroke-width="32" stroke-linecap="round" x1="128" y1="48" x2="128" y2="80"/>
      <line fill="none" stroke="currentColor" stroke-linejoin="round" stroke-width="32" stroke-linecap="round" x1="384" y1="48" x2="384" y2="80"/>
      <line fill="none" stroke="currentColor" stroke-linejoin="round" stroke-width="32" x1="464" y1="160" x2="48" y2="160"/>
    </symbol>

    <symbol id="create" viewBox="0 0 512 512">
      <title>ionicons-v5-n</title>
      <path d="M384,224V408a40,40,0,0,1-40,40H104a40,40,0,0,1-40-40V168a40,40,0,0,1,40-40H271.48" style="fill:none;stroke:currentColor;stroke-linecap:round;stroke-linejoin:round;stroke-width:32px"/>
      <path d="M459.94,53.25a16.06,16.06,0,0,0-23.22-.56L424.35,65a8,8,0,0,0,0,11.31l11.34,11.32a8,8,0,0,0,11.34,0l12.06-12C465.19,69.54,465.76,59.62,459.94,53.25Z" fill="currentColor" />
      <path d="M399.34,90,218.82,270.2a9,9,0,0,0-2.31,3.93L208.16,299a3.91,3.91,0,0,0,4.86,4.86l24.85-8.35a9,9,0,0,0,3.93-2.31L422,112.66A9,9,0,0,0,422,100L412.05,90A9,9,0,0,0,399.34,90Z" fill="currentColor" />
    </symbol>

    <symbol id="close" viewBox="0 0 512 512">
      <title>ionicons-v5-l</title>
      <line x1="368" y1="368" x2="144" y2="144" style="fill:none;stroke:currentColor;stroke-linecap:round;stroke-linejoin:round;stroke-width:32px"/>
      <line x1="368" y1="144" x2="144" y2="368" style="fill:none;stroke:currentColor;stroke-linecap:round;stroke-linejoin:round;stroke-width:32px"/>
    </symbol>

    <symbol id="settings" viewBox="0 0 512 512">
      <title>ionicons-v5-m</title>
      <path d="M456.7,242.27l-26.08-4.2a8,8,0,0,1-6.6-6.82c-.5-3.2-1-6.41-1.7-9.51a8.08,8.08,0,0,1,3.9-8.62l23.09-12.82a8.05,8.05,0,0,0,3.9-9.92l-4-11a7.94,7.94,0,0,0-9.4-5l-25.89,5a8,8,0,0,1-8.59-4.11q-2.25-4.2-4.8-8.41a8.16,8.16,0,0,1,.7-9.52l17.29-19.94a8,8,0,0,0,.3-10.62l-7.49-9a7.88,7.88,0,0,0-10.5-1.51l-22.69,13.63a8,8,0,0,1-9.39-.9c-2.4-2.11-4.9-4.21-7.4-6.22a8,8,0,0,1-2.5-9.11l9.4-24.75A8,8,0,0,0,365,78.77l-10.2-5.91a8,8,0,0,0-10.39,2.21L327.77,95.91a7.15,7.15,0,0,1-8.5,2.5s-5.6-2.3-9.8-3.71A8,8,0,0,1,304,87l.4-26.45a8.07,8.07,0,0,0-6.6-8.42l-11.59-2a8.07,8.07,0,0,0-9.1,5.61l-8.6,25.05a8,8,0,0,1-7.79,5.41h-9.8a8.07,8.07,0,0,1-7.79-5.41l-8.6-25.05a8.07,8.07,0,0,0-9.1-5.61l-11.59,2a8.07,8.07,0,0,0-6.6,8.42l.4,26.45a8,8,0,0,1-5.49,7.71c-2.3.9-7.3,2.81-9.7,3.71-2.8,1-6.1.2-8.8-2.91L167.14,75.17A8,8,0,0,0,156.75,73l-10.2,5.91A7.94,7.94,0,0,0,143.25,89l9.4,24.75a8.06,8.06,0,0,1-2.5,9.11c-2.5,2-5,4.11-7.4,6.22a8,8,0,0,1-9.39.9L111,116.14a8,8,0,0,0-10.5,1.51l-7.49,9a8,8,0,0,0,.3,10.62l17.29,19.94a8,8,0,0,1,.7,9.52q-2.55,4-4.8,8.41a8.11,8.11,0,0,1-8.59,4.11l-25.89-5a8,8,0,0,0-9.4,5l-4,11a8.05,8.05,0,0,0,3.9,9.92L85.58,213a7.94,7.94,0,0,1,3.9,8.62c-.6,3.2-1.2,6.31-1.7,9.51a8.08,8.08,0,0,1-6.6,6.82l-26.08,4.2a8.09,8.09,0,0,0-7.1,7.92v11.72a7.86,7.86,0,0,0,7.1,7.92l26.08,4.2a8,8,0,0,1,6.6,6.82c.5,3.2,1,6.41,1.7,9.51a8.08,8.08,0,0,1-3.9,8.62L62.49,311.7a8.05,8.05,0,0,0-3.9,9.92l4,11a7.94,7.94,0,0,0,9.4,5l25.89-5a8,8,0,0,1,8.59,4.11q2.25,4.2,4.8,8.41a8.16,8.16,0,0,1-.7,9.52L93.28,374.62a8,8,0,0,0-.3,10.62l7.49,9a7.88,7.88,0,0,0,10.5,1.51l22.69-13.63a8,8,0,0,1,9.39.9c2.4,2.11,4.9,4.21,7.4,6.22a8,8,0,0,1,2.5,9.11l-9.4,24.75a8,8,0,0,0,3.3,10.12l10.2,5.91a8,8,0,0,0,10.39-2.21l16.79-20.64c2.1-2.6,5.5-3.7,8.2-2.6,3.4,1.4,5.7,2.2,9.9,3.61a8,8,0,0,1,5.49,7.71l-.4,26.45a8.07,8.07,0,0,0,6.6,8.42l11.59,2a8.07,8.07,0,0,0,9.1-5.61l8.6-25a8,8,0,0,1,7.79-5.41h9.8a8.07,8.07,0,0,1,7.79,5.41l8.6,25a8.07,8.07,0,0,0,9.1,5.61l11.59-2a8.07,8.07,0,0,0,6.6-8.42l-.4-26.45a8,8,0,0,1,5.49-7.71c4.2-1.41,7-2.51,9.6-3.51s5.8-1,8.3,2.1l17,20.94A8,8,0,0,0,355,439l10.2-5.91a7.93,7.93,0,0,0,3.3-10.12l-9.4-24.75a8.08,8.08,0,0,1,2.5-9.12c2.5-2,5-4.1,7.4-6.21a8,8,0,0,1,9.39-.9L401,395.66a8,8,0,0,0,10.5-1.51l7.49-9a8,8,0,0,0-.3-10.62l-17.29-19.94a8,8,0,0,1-.7-9.52q2.55-4.05,4.8-8.41a8.11,8.11,0,0,1,8.59-4.11l25.89,5a8,8,0,0,0,9.4-5l4-11a8.05,8.05,0,0,0-3.9-9.92l-23.09-12.82a7.94,7.94,0,0,1-3.9-8.62c.6-3.2,1.2-6.31,1.7-9.51a8.08,8.08,0,0,1,6.6-6.82l26.08-4.2a8.09,8.09,0,0,0,7.1-7.92V250A8.25,8.25,0,0,0,456.7,242.27ZM256,112A143.82,143.82,0,0,1,395.38,220.12,16,16,0,0,1,379.85,240l-105.24,0a16,16,0,0,1-13.91-8.09l-52.1-91.71a16,16,0,0,1,9.85-23.39A146.94,146.94,0,0,1,256,112ZM112,256a144,144,0,0,1,43.65-103.41,16,16,0,0,1,25.17,3.47L233.06,248a16,16,0,0,1,0,15.87l-52.67,91.7a16,16,0,0,1-25.18,3.36A143.94,143.94,0,0,1,112,256ZM256,400a146.9,146.9,0,0,1-38.19-4.95,16,16,0,0,1-9.76-23.44l52.58-91.55a16,16,0,0,1,13.88-8H379.9a16,16,0,0,1,15.52,19.88A143.84,143.84,0,0,1,256,400Z" fill="currentColor" />
    </symbol>

    <symbol id="car" viewBox="0 0 512 512">
      <title>ionicons-v5-d</title>
      <path d="M80,224l37.78-88.15C123.93,121.5,139.6,112,157.11,112H354.89c17.51,0,33.18,9.5,39.33,23.85L432,224" style="fill:none;stroke:currentColor;stroke-linecap:round;stroke-linejoin:round;stroke-width:32px"/>
      <rect x="80" y="224" width="352" height="144" style="fill:none;stroke:currentColor;stroke-linecap:round;stroke-linejoin:round;stroke-width:32px"/>
      <polyline points="112 368 112 400 80 400 80 368" style="fill:none;stroke:currentColor;stroke-linecap:round;stroke-linejoin:round;stroke-width:32px"/>
      <polyline points="432 368 432 400 400 400 400 368" style="fill:none;stroke:currentColor;stroke-linecap:round;stroke-linejoin:round;stroke-width:32px"/>
      <circle cx="144" cy="288" r="16" style="fill:none;stroke:currentColor;stroke-linecap:round;stroke-linejoin:round;stroke-width:32px"/>
      <circle cx="368" cy="288" r="16" style="fill:none;stroke:currentColor;stroke-linecap:round;stroke-linejoin:round;stroke-width:32px"/>
    </symbol>

    <symbol id="camera" viewBox="0 0 512 512">
      <title>ionicons-v5-e</title>
      <path d="M350.54,148.68l-26.62-42.06C318.31,100.08,310.62,96,302,96H210c-8.62,0-16.31,4.08-21.92,10.62l-26.62,42.06C155.85,155.23,148.62,160,140,160H80a32,32,0,0,0-32,32V384a32,32,0,0,0,32,32H432a32,32,0,0,0,32-32V192a32,32,0,0,0-32-32H373C364.35,160,356.15,155.23,350.54,148.68Z" style="fill:none;stroke:currentColor;stroke-linecap:round;stroke-linejoin:round;stroke-width:32px"/>
      <circle cx="256" cy="272" r="80" style="fill:none;stroke:currentColor;stroke-miterlimit:10;stroke-width:32px"/>
      <polyline points="124 158 124 136 100 136 100 158" style="fill:none;stroke:currentColor;stroke-linecap:round;stroke-linejoin:round;stroke-width:32px"/>
    </symbol>

  </defs>
</svg>