<svg aria-hidden="true" style="position: absolute; width: 0; height: 0; overflow: hidden;" version="1.1" xmlns="http://www.w3.org/2000/svg" xmlns:xlink="http://www.w3.org/1999/xlink">
  <defs>

    <symbol id="logo" viewBox="0 0 40 22">
          <title>United Travel Logo</title>
          <path d="M22.8203 0.384418C13.6603 0.837823 5.48031 4.2975 3.66031 8.46686C2.66031 10.7634 3.91031 13.2473 6.79031 14.7061L6.96031 14.7948L7.57031 14.371L8.18031 13.9471L7.74031 13.7303C3.78031 11.7787 3.61031 8.96954 7.29031 6.26883C14.3103 1.10395 30.0103 0.019723 36.4803 4.25807C36.8503 4.50449 37.5403 5.0466 37.5103 5.07617C37.5003 5.08603 37.2603 5.07617 36.9603 5.05646C26.6803 4.40592 15.1803 8.76255 4.94031 17.1801C3.01031 18.767 0.0903107 21.4875 0.280311 21.517C0.310311 21.5269 1.65031 21.1228 3.25031 20.6299L6.16031 19.733L6.45031 19.3387C10.2503 14.2133 16.0603 10.1425 23.2303 7.59947C24.3203 7.21506 26.6703 6.50538 26.8703 6.50538C26.8903 6.50538 26.4603 6.65323 25.9103 6.84051C19.8303 8.85126 14.3003 12.1729 9.82031 16.5C8.65031 17.6335 6.98031 19.4964 7.06031 19.5753C7.07031 19.5851 7.48031 19.5457 7.98031 19.4964C8.48031 19.4471 8.92031 19.3979 8.97031 19.3979C9.03031 19.3979 9.14031 19.2894 9.37031 18.9937C13.3003 13.819 19.7403 9.5708 27.6003 6.93908C28.4703 6.65323 28.5103 6.65323 27.7103 6.95879C21.5903 9.26524 16.1103 12.7348 12.2903 16.7267C11.4803 17.5744 10.4403 18.8163 10.1903 19.2402L10.1203 19.3584L10.3703 19.3781C10.9403 19.4373 16.7303 19.8315 16.7503 19.8217C16.7603 19.8118 16.7903 19.6443 16.8303 19.457C17.7503 14.2231 21.7903 10.1326 28.7203 7.44177C31.2803 6.44625 34.6103 5.57886 37.2803 5.20431L37.6103 5.15503L37.7603 5.33245C39.0603 6.78137 38.8203 8.388 37.0403 10.1425C33.7703 13.3656 26.6703 15.6031 19.2403 15.7509L18.8203 15.7608L18.4903 16.4113L18.1603 17.0618L19.4303 17.0421C28.7903 16.8647 37.6403 13.2966 39.5503 8.93997C40.0103 7.88531 40.0003 6.63352 39.5303 5.638C37.8703 2.14875 30.9403 -0.0197035 22.8203 0.384418Z" fill="currentColor" />
    </symbol>

    <symbol id="person-circle" viewBox="0 0 512 512">
        <title>ionicons-v5-j</title><path d="M258.9,48C141.92,46.42,46.42,141.92,48,258.9,49.56,371.09,140.91,462.44,253.1,464c117,1.6,212.48-93.9,210.88-210.88C462.44,140.91,371.09,49.56,258.9,48ZM385.32,375.25a4,4,0,0,1-6.14-.32,124.27,124.27,0,0,0-32.35-29.59C321.37,329,289.11,320,256,320s-65.37,9-90.83,25.34a124.24,124.24,0,0,0-32.35,29.58,4,4,0,0,1-6.14.32A175.32,175.32,0,0,1,80,259C78.37,161.69,158.22,80.24,255.57,80S432,158.81,432,256A175.32,175.32,0,0,1,385.32,375.25Z" fill="currentColor" />
        <path d="M256,144c-19.72,0-37.55,7.39-50.22,20.82s-19,32-17.57,51.93C191.11,256,221.52,288,256,288s64.83-32,67.79-71.24c1.48-19.74-4.8-38.14-17.68-51.82C293.39,151.44,275.59,144,256,144Z" fill="currentColor" />
    </symbol>

    <symbol id="language" viewBox="0 0 24 24" fill="currentColor">
        <path d="M0 0h24v24H0V0z" fill="none"/>
        <path d="M11.99 2C6.47 2 2 6.48 2 12s4.47 10 9.99 10C17.52 22 22 17.52 22 12S17.52 2 11.99 2zm6.93 6h-2.95c-.32-1.25-.78-2.45-1.38-3.56 1.84.63 3.37 1.91 4.33 3.56zM12 4.04c.83 1.2 1.48 2.53 1.91 3.96h-3.82c.43-1.43 1.08-2.76 1.91-3.96zM4.26 14C4.1 13.36 4 12.69 4 12s.1-1.36.26-2h3.38c-.08.66-.14 1.32-.14 2s.06 1.34.14 2H4.26zm.82 2h2.95c.32 1.25.78 2.45 1.38 3.56-1.84-.63-3.37-1.9-4.33-3.56zm2.95-8H5.08c.96-1.66 2.49-2.93 4.33-3.56C8.81 5.55 8.35 6.75 8.03 8zM12 19.96c-.83-1.2-1.48-2.53-1.91-3.96h3.82c-.43 1.43-1.08 2.76-1.91 3.96zM14.34 14H9.66c-.09-.66-.16-1.32-.16-2s.07-1.35.16-2h4.68c.09.65.16 1.32.16 2s-.07 1.34-.16 2zm.25 5.56c.6-1.11 1.06-2.31 1.38-3.56h2.95c-.96 1.65-2.49 2.93-4.33 3.56zM16.36 14c.08-.66.14-1.32.14-2s-.06-1.34-.14-2h3.38c.16.64.26 1.31.26 2s-.1 1.36-.26 2h-3.38z"/>
    </symbol>

    <symbol id="star-half" viewBox="0 0 512 512">
      <title>ionicons-v5-e</title>
      <path d="M480,208H308L256,48,204,208H32l140,96L118,464,256,364,394,464,340,304Z" style="fill:none;stroke:currentColor;stroke-linejoin:round;stroke-width:32px"/>
      <polygon points="256 48 256 364 118 464 172 304 32 208 204 208 256 48" fill="currentColor" />
    </symbol>

    <svg id="star-outline" viewBox="0 0 512 512">
      <title>ionicons-v5-e</title>
      <path d="M480,208H308L256,48,204,208H32l140,96L118,464,256,364,394,464,340,304Z" style="fill:none;stroke:currentColor;stroke-linejoin:round;stroke-width:32px"/>
    </svg>

    <svg id="star" viewBox="0 0 512 512">
      <title>ionicons-v5-e</title>
      <path d="M394,480a16,16,0,0,1-9.39-3L256,383.76,127.39,477a16,16,0,0,1-24.55-18.08L153,310.35,23,221.2A16,16,0,0,1,32,192H192.38l48.4-148.95a16,16,0,0,1,30.44,0l48.4,149H480a16,16,0,0,1,9.05,29.2L359,310.35l50.13,148.53A16,16,0,0,1,394,480Z" fill="currentColor"/>
    </svg>

    <symbol id="email" viewBox="0 0 512 512">
      <title>ionicons-v5-o</title>
      <rect x="48" y="96" width="416" height="320" rx="40" ry="40" style="fill:none;stroke:currentColor;stroke-linecap:round;stroke-linejoin:round;stroke-width:32px"/>
      <polyline points="112 160 256 272 400 160" style="fill:none;stroke:currentColor;stroke-linecap:round;stroke-linejoin:round;stroke-width:32px"/>
    </symbol>

    <symbol id="iphone" viewBox="0 0 512 512">
      <title>ionicons-v5-k</title>
      <rect x="128" y="16" width="256" height="480" rx="48" ry="48" style="fill:none;stroke:currentColor;stroke-linecap:round;stroke-linejoin:round;stroke-width:32px"/>
      <path d="M176,16h24a8,8,0,0,1,8,8h0a16,16,0,0,0,16,16h64a16,16,0,0,0,16-16h0a8,8,0,0,1,8-8h24" style="fill:none;stroke:currentColor;stroke-linecap:round;stroke-linejoin:round;stroke-width:32px"/>
    </symbol>

  </defs>
</svg>