<svg aria-hidden="true" style="position: absolute; width: 0; height: 0; overflow: hidden;" version="1.1" xmlns="http://www.w3.org/2000/svg" xmlns:xlink="http://www.w3.org/1999/xlink">
  <defs>

    <symbol id="logo" viewBox="0 0 40 22">
          <title>United Travel Logo</title>
          <path d="M22.8203 0.384418C13.6603 0.837823 5.48031 4.2975 3.66031 8.46686C2.66031 10.7634 3.91031 13.2473 6.79031 14.7061L6.96031 14.7948L7.57031 14.371L8.18031 13.9471L7.74031 13.7303C3.78031 11.7787 3.61031 8.96954 7.29031 6.26883C14.3103 1.10395 30.0103 0.019723 36.4803 4.25807C36.8503 4.50449 37.5403 5.0466 37.5103 5.07617C37.5003 5.08603 37.2603 5.07617 36.9603 5.05646C26.6803 4.40592 15.1803 8.76255 4.94031 17.1801C3.01031 18.767 0.0903107 21.4875 0.280311 21.517C0.310311 21.5269 1.65031 21.1228 3.25031 20.6299L6.16031 19.733L6.45031 19.3387C10.2503 14.2133 16.0603 10.1425 23.2303 7.59947C24.3203 7.21506 26.6703 6.50538 26.8703 6.50538C26.8903 6.50538 26.4603 6.65323 25.9103 6.84051C19.8303 8.85126 14.3003 12.1729 9.82031 16.5C8.65031 17.6335 6.98031 19.4964 7.06031 19.5753C7.07031 19.5851 7.48031 19.5457 7.98031 19.4964C8.48031 19.4471 8.92031 19.3979 8.97031 19.3979C9.03031 19.3979 9.14031 19.2894 9.37031 18.9937C13.3003 13.819 19.7403 9.5708 27.6003 6.93908C28.4703 6.65323 28.5103 6.65323 27.7103 6.95879C21.5903 9.26524 16.1103 12.7348 12.2903 16.7267C11.4803 17.5744 10.4403 18.8163 10.1903 19.2402L10.1203 19.3584L10.3703 19.3781C10.9403 19.4373 16.7303 19.8315 16.7503 19.8217C16.7603 19.8118 16.7903 19.6443 16.8303 19.457C17.7503 14.2231 21.7903 10.1326 28.7203 7.44177C31.2803 6.44625 34.6103 5.57886 37.2803 5.20431L37.6103 5.15503L37.7603 5.33245C39.0603 6.78137 38.8203 8.388 37.0403 10.1425C33.7703 13.3656 26.6703 15.6031 19.2403 15.7509L18.8203 15.7608L18.4903 16.4113L18.1603 17.0618L19.4303 17.0421C28.7903 16.8647 37.6403 13.2966 39.5503 8.93997C40.0103 7.88531 40.0003 6.63352 39.5303 5.638C37.8703 2.14875 30.9403 -0.0197035 22.8203 0.384418Z" fill="currentColor" />
    </symbol>

    <symbol id="person-circle" viewBox="0 0 512 512">
        <title>ionicons-v5-j</title><path d="M258.9,48C141.92,46.42,46.42,141.92,48,258.9,49.56,371.09,140.91,462.44,253.1,464c117,1.6,212.48-93.9,210.88-210.88C462.44,140.91,371.09,49.56,258.9,48ZM385.32,375.25a4,4,0,0,1-6.14-.32,124.27,124.27,0,0,0-32.35-29.59C321.37,329,289.11,320,256,320s-65.37,9-90.83,25.34a124.24,124.24,0,0,0-32.35,29.58,4,4,0,0,1-6.14.32A175.32,175.32,0,0,1,80,259C78.37,161.69,158.22,80.24,255.57,80S432,158.81,432,256A175.32,175.32,0,0,1,385.32,375.25Z" fill="currentColor" />
        <path d="M256,144c-19.72,0-37.55,7.39-50.22,20.82s-19,32-17.57,51.93C191.11,256,221.52,288,256,288s64.83-32,67.79-71.24c1.48-19.74-4.8-38.14-17.68-51.82C293.39,151.44,275.59,144,256,144Z" fill="currentColor" />
    </symbol>

    <symbol id="language" viewBox="0 0 24 24" fill="currentColor">
        <path d="M0 0h24v24H0V0z" fill="none"/>
        <path d="M11.99 2C6.47 2 2 6.48 2 12s4.47 10 9.99 10C17.52 22 22 17.52 22 12S17.52 2 11.99 2zm6.93 6h-2.95c-.32-1.25-.78-2.45-1.38-3.56 1.84.63 3.37 1.91 4.33 3.56zM12 4.04c.83 1.2 1.48 2.53 1.91 3.96h-3.82c.43-1.43 1.08-2.76 1.91-3.96zM4.26 14C4.1 13.36 4 12.69 4 12s.1-1.36.26-2h3.38c-.08.66-.14 1.32-.14 2s.06 1.34.14 2H4.26zm.82 2h2.95c.32 1.25.78 2.45 1.38 3.56-1.84-.63-3.37-1.9-4.33-3.56zm2.95-8H5.08c.96-1.66 2.49-2.93 4.33-3.56C8.81 5.55 8.35 6.75 8.03 8zM12 19.96c-.83-1.2-1.48-2.53-1.91-3.96h3.82c-.43 1.43-1.08 2.76-1.91 3.96zM14.34 14H9.66c-.09-.66-.16-1.32-.16-2s.07-1.35.16-2h4.68c.09.65.16 1.32.16 2s-.07 1.34-.16 2zm.25 5.56c.6-1.11 1.06-2.31 1.38-3.56h2.95c-.96 1.65-2.49 2.93-4.33 3.56zM16.36 14c.08-.66.14-1.32.14-2s-.06-1.34-.14-2h3.38c.16.64.26 1.31.26 2s-.1 1.36-.26 2h-3.38z"/>
    </symbol>

    <symbol id="star-half" viewBox="0 0 512 512">
      <title>ionicons-v5-e</title>
      <path d="M480,208H308L256,48,204,208H32l140,96L118,464,256,364,394,464,340,304Z" style="fill:none;stroke:currentColor;stroke-linejoin:round;stroke-width:32px"/>
      <polygon points="256 48 256 364 118 464 172 304 32 208 204 208 256 48" fill="currentColor" />
    </symbol>

    <svg id="star-outline" viewBox="0 0 512 512">
      <title>ionicons-v5-e</title>
      <path d="M480,208H308L256,48,204,208H32l140,96L118,464,256,364,394,464,340,304Z" style="fill:none;stroke:currentColor;stroke-linejoin:round;stroke-width:32px"/>
    </svg>

    <svg id="star" viewBox="0 0 512 512">
      <title>ionicons-v5-e</title>
      <path d="M394,480a16,16,0,0,1-9.39-3L256,383.76,127.39,477a16,16,0,0,1-24.55-18.08L153,310.35,23,221.2A16,16,0,0,1,32,192H192.38l48.4-148.95a16,16,0,0,1,30.44,0l48.4,149H480a16,16,0,0,1,9.05,29.2L359,310.35l50.13,148.53A16,16,0,0,1,394,480Z" fill="currentColor"/>
    </svg>

    <symbol id="email" viewBox="0 0 512 512">
      <title>ionicons-v5-o</title>
      <rect x="48" y="96" width="416" height="320" rx="40" ry="40" style="fill:none;stroke:currentColor;stroke-linecap:round;stroke-linejoin:round;stroke-width:32px"/>
      <polyline points="112 160 256 272 400 160" style="fill:none;stroke:currentColor;stroke-linecap:round;stroke-linejoin:round;stroke-width:32px"/>
    </symbol>

    <symbol id="iphone" viewBox="0 0 512 512">
      <title>ionicons-v5-k</title>
      <rect x="128" y="16" width="256" height="480" rx="48" ry="48" style="fill:none;stroke:currentColor;stroke-linecap:round;stroke-linejoin:round;stroke-width:32px"/>
      <path d="M176,16h24a8,8,0,0,1,8,8h0a16,16,0,0,0,16,16h64a16,16,0,0,0,16-16h0a8,8,0,0,1,8-8h24" style="fill:none;stroke:currentColor;stroke-linecap:round;stroke-linejoin:round;stroke-width:32px"/>
    </symbol>

    <symbol id="people" viewBox="0 0 512 512" fill="currentColor">
      <title>ionicons-v5-j</title>
      <path d="M336,256c-20.56,0-40.44-9.18-56-25.84-15.13-16.25-24.37-37.92-26-61-1.74-24.62,5.77-47.26,21.14-63.76S312,80,336,80c23.83,0,45.38,9.06,60.7,25.52,15.47,16.62,23,39.22,21.26,63.63h0c-1.67,23.11-10.9,44.77-26,61C376.44,246.82,356.57,256,336,256Zm66-88h0Z"/>
      <path d="M467.83,432H204.18a27.71,27.71,0,0,1-22-10.67,30.22,30.22,0,0,1-5.26-25.79c8.42-33.81,29.28-61.85,60.32-81.08C264.79,297.4,299.86,288,336,288c36.85,0,71,9,98.71,26.05,31.11,19.13,52,47.33,60.38,81.55a30.27,30.27,0,0,1-5.32,25.78A27.68,27.68,0,0,1,467.83,432Z"/>
      <path d="M147,260c-35.19,0-66.13-32.72-69-72.93C76.58,166.47,83,147.42,96,133.45,108.86,119.62,127,112,147,112s38,7.66,50.93,21.57c13.1,14.08,19.5,33.09,18,53.52C213.06,227.29,182.13,260,147,260Z"/>
      <path d="M212.66,291.45c-17.59-8.6-40.42-12.9-65.65-12.9-29.46,0-58.07,7.68-80.57,21.62C40.93,316,23.77,339.05,16.84,366.88a27.39,27.39,0,0,0,4.79,23.36A25.32,25.32,0,0,0,41.72,400h111a8,8,0,0,0,7.87-6.57c.11-.63.25-1.26.41-1.88,8.48-34.06,28.35-62.84,57.71-83.82a8,8,0,0,0-.63-13.39C216.51,293.42,214.71,292.45,212.66,291.45Z"/>
    </symbol>

    <symbol id="briefcase" viewBox="0 0 512 512" fill="currentColor">
      <title>ionicons-v5-e</title>
      <path d="M336,80H176a16,16,0,0,0-16,16v16H352V96A16,16,0,0,0,336,80Z" style="fill:none"/>
      <path d="M496,176a64.07,64.07,0,0,0-64-64H384V96a48.05,48.05,0,0,0-48-48H176a48.05,48.05,0,0,0-48,48v16H80a64.07,64.07,0,0,0-64,64v48H496ZM352,112H160V96a16,16,0,0,1,16-16H336a16,16,0,0,1,16,16Z"/>
      <path d="M336,264a24,24,0,0,1-24,24H200a24,24,0,0,1-24-24v-4a4,4,0,0,0-4-4H16V400a64,64,0,0,0,64,64H432a64,64,0,0,0,64-64V256H340a4,4,0,0,0-4,4Z"/>
    </symbol>

    <symbol id="arrow-back" viewBox="0 0 512 512">
      <title>ionicons-v5-a</title>
      <polyline points="244 400 100 256 244 112" style="fill:none;stroke:currentColor;stroke-linecap:round;stroke-linejoin:round;stroke-width:48px"/>
      <line x1="120" y1="256" x2="412" y2="256" style="fill:none;stroke:currentColor;stroke-linecap:round;stroke-linejoin:round;stroke-width:48px"/>
    </symbol>

    <symbol id="google" viewBox="0 0 512 512" fill="currentColor">
      <title>ionicons-v5_logos</title>
      <path d="M473.16,221.48l-2.26-9.59H262.46v88.22H387c-12.93,61.4-72.93,93.72-121.94,93.72-35.66,0-73.25-15-98.13-39.11a140.08,140.08,0,0,1-41.8-98.88c0-37.16,16.7-74.33,41-98.78s61-38.13,97.49-38.13c41.79,0,71.74,22.19,82.94,32.31l62.69-62.36C390.86,72.72,340.34,32,261.6,32h0c-60.75,0-119,23.27-161.58,65.71C58,139.5,36.25,199.93,36.25,256S56.83,369.48,97.55,411.6C141.06,456.52,202.68,480,266.13,480c57.73,0,112.45-22.62,151.45-63.66,38.34-40.4,58.17-96.3,58.17-154.9C475.75,236.77,473.27,222.12,473.16,221.48Z"/>
    </symbol>

    <symbol id="facebook" viewBox="0 0 512 512" fill="currentColor">
      <path d="M480,257.35c0-123.7-100.3-224-224-224s-224,100.3-224,224c0,111.8,81.9,204.47,189,221.29V322.12H164.11V257.35H221V208c0-56.13,33.45-87.16,84.61-87.16,24.51,0,50.15,4.38,50.15,4.38v55.13H327.5c-27.81,0-36.51,17.26-36.51,35v42h62.12l-9.92,64.77H291V478.66C398.1,461.85,480,369.18,480,257.35Z" fill-rule="evenodd"/>
    </symbol>

    <symbol id="eye" viewBox="0 0 512 512">
      <title>ionicons-v5-i</title>
      <path d="M255.66,112c-77.94,0-157.89,45.11-220.83,135.33a16,16,0,0,0-.27,17.77C82.92,340.8,161.8,400,255.66,400,348.5,400,429,340.62,477.45,264.75a16.14,16.14,0,0,0,0-17.47C428.89,172.28,347.8,112,255.66,112Z" style="fill:none;stroke:currentColor;stroke-linecap:round;stroke-linejoin:round;stroke-width:32px"/>
      <circle cx="256" cy="256" r="80" style="fill:none;stroke:currentColor;stroke-miterlimit:10;stroke-width:32px"/>
    </symbol>

    <symbol id="eye-off" viewBox="0 0 512 512" fill="currentColor">
      <title>ionicons-v5-i</title>
      <path d="M432,448a15.92,15.92,0,0,1-11.31-4.69l-352-352A16,16,0,0,1,91.31,68.69l352,352A16,16,0,0,1,432,448Z"/>
      <path d="M255.66,384c-41.49,0-81.5-12.28-118.92-36.5-34.07-22-64.74-53.51-88.7-91l0-.08c19.94-28.57,41.78-52.73,65.24-72.21a2,2,0,0,0,.14-2.94L93.5,161.38a2,2,0,0,0-2.71-.12c-24.92,21-48.05,46.76-69.08,76.92a31.92,31.92,0,0,0-.64,35.54c26.41,41.33,60.4,76.14,98.28,100.65C162,402,207.9,416,255.66,416a239.13,239.13,0,0,0,75.8-12.58,2,2,0,0,0,.77-3.31l-21.58-21.58a4,4,0,0,0-3.83-1A204.8,204.8,0,0,1,255.66,384Z"/>
      <path d="M490.84,238.6c-26.46-40.92-60.79-75.68-99.27-100.53C349,110.55,302,96,255.66,96a227.34,227.34,0,0,0-74.89,12.83,2,2,0,0,0-.75,3.31l21.55,21.55a4,4,0,0,0,3.88,1A192.82,192.82,0,0,1,255.66,128c40.69,0,80.58,12.43,118.55,37,34.71,22.4,65.74,53.88,89.76,91a.13.13,0,0,1,0,.16,310.72,310.72,0,0,1-64.12,72.73,2,2,0,0,0-.15,2.95l19.9,19.89a2,2,0,0,0,2.7.13,343.49,343.49,0,0,0,68.64-78.48A32.2,32.2,0,0,0,490.84,238.6Z"/>
      <path d="M256,160a95.88,95.88,0,0,0-21.37,2.4,2,2,0,0,0-1,3.38L346.22,278.34a2,2,0,0,0,3.38-1A96,96,0,0,0,256,160Z"/>
      <path d="M165.78,233.66a2,2,0,0,0-3.38,1,96,96,0,0,0,115,115,2,2,0,0,0,1-3.38Z"/>
    </symbol>

    <symbol id="error" viewBox="0 0 512 512">
      <title>ionicons-v5-m</title>
      <path d="M448,256c0-106-86-192-192-192S64,150,64,256s86,192,192,192S448,362,448,256Z" style="fill:none;stroke:currentColor;stroke-miterlimit:10;stroke-width:32px"/>
      <line x1="320" y1="320" x2="192" y2="192" style="fill:none;stroke:currentColor;stroke-linecap:round;stroke-linejoin:round;stroke-width:32px"/>
      <line x1="192" y1="320" x2="320" y2="192" style="fill:none;stroke:currentColor;stroke-linecap:round;stroke-linejoin:round;stroke-width:32px"/>
    </symbol>

    <symbol id="lock" viewBox="0 0 512 512">
      <title>ionicons-v5-g</title>
      <path d="M336,208V113a80,80,0,0,0-160,0v95" style="fill:none;stroke:currentColor;stroke-linecap:round;stroke-linejoin:round;stroke-width:32px"/>
      <rect x="96" y="208" width="320" height="272" rx="48" ry="48" style="fill:none;stroke:currentColor;stroke-linecap:round;stroke-linejoin:round;stroke-width:32px"/>
    </symbol>

    <symbol id="upload" viewBox="0 0 512 512">
      <title>ionicons-v5-f</title>
      <path d="M320,367.79h76c55,0,100-29.21,100-83.6s-53-81.47-96-83.6c-8.89-85.06-71-136.8-144-136.8-69,0-113.44,45.79-128,91.2-60,5.7-112,43.88-112,106.4s54,106.4,120,106.4h56" style="fill:none;stroke:currentColor;stroke-linecap:round;stroke-linejoin:round;stroke-width:32px"/>
      <polyline points="320 255.79 256 191.79 192 255.79" style="fill:none;stroke:currentColor;stroke-linecap:round;stroke-linejoin:round;stroke-width:32px"/>
      <line x1="256" y1="448.21" x2="256" y2="207.79" style="fill:none;stroke:currentColor;stroke-linecap:round;stroke-linejoin:round;stroke-width:32px"/>
    </symbol>

    <symbol id="keypad" fill="currentColor" viewBox="0 0 512 512">
      <title>ionicons-v5-g</title>
      <path d="M256,400a48,48,0,1,0,48,48,48,48,0,0,0-48-48Z"/>
      <path d="M256,272a48,48,0,1,0,48,48,48,48,0,0,0-48-48Z"/>
      <path d="M256,144a48,48,0,1,0,48,48,48,48,0,0,0-48-48Z"/>
      <path d="M256,16a48,48,0,1,0,48,48,48,48,0,0,0-48-48Z"/>
      <path d="M384,272a48,48,0,1,0,48,48,48,48,0,0,0-48-48Z"/>
      <path d="M384,144a48,48,0,1,0,48,48,48,48,0,0,0-48-48Z"/>
      <path d="M384,16a48,48,0,1,0,48,48,48,48,0,0,0-48-48Z"/>
      <path d="M128,272a48,48,0,1,0,48,48,48,48,0,0,0-48-48Z"/>
      <path d="M128,144a48,48,0,1,0,48,48,48,48,0,0,0-48-48Z"/>
      <path d="M128,16a48,48,0,1,0,48,48,48,48,0,0,0-48-48Z"/>
    </symbol>

    <symbol id="expand" viewBox="0 0 512 512">
      <title>ionicons-v5-a</title>
      <polyline points="112 184 256 328 400 184" style="fill:none;stroke:currentColor;stroke-linecap:round;stroke-linejoin:round;stroke-width:48px"/>
    </symbol>

    <symbol id="airplane" viewBox="0 0 512 512">
      <title>ionicons-v5-a</title>
      <path d="M407.72,224c-3.4,0-14.79.1-18,.3l-64.9,1.7a1.83,1.83,0,0,1-1.69-.9L193.55,67.56A9,9,0,0,0,186.89,64H160l73,161a2.35,2.35,0,0,1-2.26,3.35l-121.69,1.8a8.06,8.06,0,0,1-6.6-3.1l-37-45c-3-3.9-8.62-6-13.51-6H33.08c-1.29,0-1.1,1.21-.75,2.43L52.17,249.9a16.3,16.3,0,0,1,0,11.9L32.31,333c-.59,1.95-.52,3,1.77,3H52c8.14,0,9.25-1.06,13.41-6.3l37.7-45.7a8.19,8.19,0,0,1,6.6-3.1l120.68,2.7a2.7,2.7,0,0,1,2.43,3.74L160,448h26.64a9,9,0,0,0,6.65-3.55L323.14,287c.39-.6,2-.9,2.69-.9l63.9,1.7c3.3.2,14.59.3,18,.3C452,288.1,480,275.93,480,256S452.12,224,407.72,224Z" style="fill:none;stroke:currentColor;stroke-linecap:round;stroke-linejoin:round;stroke-width:32px"/>
    </symbol>

    <symbol id="ship" viewBox="0 0 512 512">
      <title>ionicons-v5-h</title>
      <path d="M461.93,261.05c-2-4.76-6.71-7.83-11.67-9.49L263.08,177.08a23.78,23.78,0,0,0-14.17,0l-187,74.52c-5,1.56-9.83,4.77-11.81,9.53s-2.94,9.37-1,15.08L95.63,395.36A7.46,7.46,0,0,0,103.1,400c26.69-1.68,50.31-15.23,68.38-32.5a7.66,7.66,0,0,1,10.49,0C201.29,386,227,400,256,400s54.56-14,73.88-32.54a7.67,7.67,0,0,1,10.5,0c18.07,17.28,41.69,30.86,68.38,32.54a7.45,7.45,0,0,0,7.46-4.61l46.7-119.16C464.9,271.45,463.91,265.82,461.93,261.05Z" style="fill:none;stroke:currentColor;stroke-miterlimit:10;stroke-width:32px"/>
      <path d="M416,473.14a6.84,6.84,0,0,0-3.56-6c-27.08-14.55-51.77-36.82-62.63-48a10.05,10.05,0,0,0-12.72-1.51c-50.33,32.42-111.61,32.44-161.95.05a10.09,10.09,0,0,0-12.82,1.56c-10.77,11.28-35.19,33.3-62.43,47.75A7.15,7.15,0,0,0,96,472.72a6.73,6.73,0,0,0,7.92,7.15c20.85-4.18,41-13.68,60.2-23.83a8.71,8.71,0,0,1,8-.06A185.14,185.14,0,0,0,340,456a8.82,8.82,0,0,1,8.09.06c19.1,10,39.22,19.59,60,23.8a6.72,6.72,0,0,0,7.95-6.71Z" style="fill: currentColor" />
      <path d="M320,96V72a24.07,24.07,0,0,0-24-24H216a24.07,24.07,0,0,0-24,24V96" style="fill:none;stroke:currentColor;stroke-linecap:round;stroke-linejoin:round;stroke-width:32px"/>
      <path d="M416,233V144a48.14,48.14,0,0,0-48-48H144a48.14,48.14,0,0,0-48,48v92" style="fill:none;stroke:currentColor;stroke-linecap:round;stroke-linejoin:round;stroke-width:32px"/>
      <line x1="256" y1="183.6" x2="256" y2="396.45" style="fill:none;stroke:currentColor;stroke-linecap:round;stroke-linejoin:round;stroke-width:32px"/>
    </symbol>

    <symbol id="location-pin" viewBox="0 0 512 512">
      <title>ionicons-v5-n</title>
      <path d="M256,48c-79.5,0-144,61.39-144,137,0,87,96,224.87,131.25,272.49a15.77,15.77,0,0,0,25.5,0C304,409.89,400,272.07,400,185,400,109.39,335.5,48,256,48Z" style="fill:none;stroke:currentColor;stroke-linecap:round;stroke-linejoin:round;stroke-width:32px"/>
      <circle cx="256" cy="192" r="48" style="fill:none;stroke:currentColor;stroke-linecap:round;stroke-linejoin:round;stroke-width:32px"/>
    </symbol>

  </defs>
</svg>