<svg width="20" height="20" viewBox="0 0 20 20" fill="none" xmlns="http://www.w3.org/2000/svg">
<path d="M3.75 3.125H16.25C17.2855 3.125 18.125 3.96447 18.125 5V16.25C18.125 17.2855 17.2855 18.125 16.25 18.125H3.75C2.71447 18.125 1.875 17.2855 1.875 16.25V5C1.875 3.96447 2.71447 3.125 3.75 3.125Z" stroke="#333333" stroke-linejoin="round"/>
<path d="M4.46016 3.125H15.5398C16.9652 3.125 18.125 4.30273 18.125 5.75V8.125H17.5C17.5 7.5 16.875 6.875 16.25 6.875H3.75C3.125 6.875 2.5 7.5 2.5 8.125H1.875V5.75C1.875 4.30273 3.03477 3.125 4.46016 3.125Z" fill="#333333"/>
<path d="M8.4375 10C7.91973 10 7.5 9.58027 7.5 9.0625C7.5 8.54473 7.91973 8.125 8.4375 8.125C8.95527 8.125 9.375 8.54473 9.375 9.0625C9.375 9.58027 8.95527 10 8.4375 10Z" fill="#333333"/>
<path d="M5.3125 10C4.79473 10 4.375 9.58027 4.375 9.0625C4.375 8.54473 4.79473 8.125 5.3125 8.125C5.83027 8.125 6.25 8.54473 6.25 9.0625C6.25 9.58027 5.83027 10 5.3125 10Z" fill="#333333"/>
<path d="M8.4375 13.125C7.91973 13.125 7.5 12.7053 7.5 12.1875C7.5 11.6697 7.91973 11.25 8.4375 11.25C8.95527 11.25 9.375 11.6697 9.375 12.1875C9.375 12.7053 8.95527 13.125 8.4375 13.125Z" fill="#333333"/>
<path d="M5.3125 13.125C4.79473 13.125 4.375 12.7053 4.375 12.1875C4.375 11.6697 4.79473 11.25 5.3125 11.25C5.83027 11.25 6.25 11.6697 6.25 12.1875C6.25 12.7053 5.83027 13.125 5.3125 13.125Z" fill="#333333"/>
<path d="M14.6875 13.125C14.1697 13.125 13.75 12.7053 13.75 12.1875C13.75 11.6697 14.1697 11.25 14.6875 11.25C15.2053 11.25 15.625 11.6697 15.625 12.1875C15.625 12.7053 15.2053 13.125 14.6875 13.125Z" fill="#333333"/>
<path d="M11.5625 13.125C11.0447 13.125 10.625 12.7053 10.625 12.1875C10.625 11.6697 11.0447 11.25 11.5625 11.25C12.0803 11.25 12.5 11.6697 12.5 12.1875C12.5 12.7053 12.0803 13.125 11.5625 13.125Z" fill="#333333"/>
<path d="M14.6875 16.25C14.1697 16.25 13.75 15.8303 13.75 15.3125C13.75 14.7947 14.1697 14.375 14.6875 14.375C15.2053 14.375 15.625 14.7947 15.625 15.3125C15.625 15.8303 15.2053 16.25 14.6875 16.25Z" fill="#333333"/>
<path d="M11.5625 16.25C11.0447 16.25 10.625 15.8303 10.625 15.3125C10.625 14.7947 11.0447 14.375 11.5625 14.375C12.0803 14.375 12.5 14.7947 12.5 15.3125C12.5 15.8303 12.0803 16.25 11.5625 16.25Z" fill="#333333"/>
<path d="M8.4375 16.25C7.91973 16.25 7.5 15.8303 7.5 15.3125C7.5 14.7947 7.91973 14.375 8.4375 14.375C8.95527 14.375 9.375 14.7947 9.375 15.3125C9.375 15.8303 8.95527 16.25 8.4375 16.25Z" fill="#333333"/>
<path d="M15 1.875V3.125" stroke="#333333" stroke-width="2" stroke-linecap="round" stroke-linejoin="round"/>
<path d="M5 1.875V3.125" stroke="#333333" stroke-width="2" stroke-linecap="round" stroke-linejoin="round"/>
</svg>
