<svg width="18" height="18" viewBox="0 0 18 18" fill="none" xmlns="http://www.w3.org/2000/svg">
<path d="M15.1876 15.75C15.1137 15.7501 15.0405 15.7356 14.9723 15.7073C14.904 15.679 14.8421 15.6374 14.79 15.5851L2.41495 3.21007C2.31392 3.10372 2.25842 2.96211 2.2603 2.81543C2.26218 2.66875 2.32128 2.52861 2.42501 2.42488C2.52873 2.32116 2.66887 2.26206 2.81555 2.26018C2.96223 2.2583 3.10384 2.3138 3.21019 2.41483L15.5852 14.7898C15.6638 14.8685 15.7173 14.9687 15.739 15.0778C15.7607 15.1869 15.7496 15.2999 15.707 15.4027C15.6645 15.5054 15.5924 15.5933 15.4999 15.6551C15.4075 15.7169 15.2988 15.7499 15.1876 15.75V15.75Z" fill="black"/>
<path d="M8.98802 13.5C7.52938 13.5 6.12278 13.0683 4.80724 12.2168C3.60946 11.4434 2.53122 10.3356 1.68888 9.01757V9.01476C2.38989 8.01035 3.1577 7.16097 3.98247 6.47613C3.98993 6.46989 3.99602 6.46217 4.00034 6.45346C4.00467 6.44475 4.00714 6.43524 4.0076 6.42553C4.00807 6.41581 4.00651 6.40611 4.00303 6.39703C3.99955 6.38795 3.99423 6.37969 3.98739 6.37277L3.28708 5.67351C3.27463 5.66096 3.25792 5.65356 3.24027 5.65278C3.22261 5.652 3.20531 5.65789 3.19181 5.66929C2.31571 6.40757 1.50255 7.3132 0.763211 8.37351C0.63601 8.55608 0.565956 8.77234 0.56195 8.99481C0.557943 9.21729 0.620166 9.43593 0.740711 9.62296C1.66919 11.076 2.86415 12.2998 4.19587 13.1614C5.69528 14.1328 7.30895 14.625 8.98802 14.625C9.89433 14.6222 10.7942 14.4728 11.6529 14.1827C11.6642 14.1789 11.6743 14.1722 11.6824 14.1634C11.6904 14.1545 11.6961 14.1437 11.6988 14.1321C11.7015 14.1204 11.7012 14.1083 11.6979 14.0968C11.6946 14.0853 11.6884 14.0748 11.6799 14.0664L10.9213 13.3077C10.9038 13.2907 10.8822 13.2784 10.8586 13.2723C10.835 13.2661 10.8102 13.2662 10.7866 13.2725C10.1991 13.4238 9.59474 13.5003 8.98802 13.5V13.5Z" fill="black"/>
<path d="M17.2562 8.38828C16.326 6.94969 15.1191 5.72766 13.7662 4.85402C12.2696 3.88652 10.6173 3.375 8.98816 3.375C8.09145 3.37659 7.20141 3.52907 6.35531 3.82605C6.34404 3.82998 6.33395 3.83671 6.32599 3.84561C6.31804 3.8545 6.31248 3.86528 6.30984 3.87692C6.30721 3.88856 6.30758 3.90069 6.31092 3.91214C6.31426 3.9236 6.32046 3.93402 6.32894 3.94242L7.08656 4.70004C7.1042 4.71738 7.12609 4.72976 7.15004 4.73593C7.17399 4.7421 7.19915 4.74185 7.22297 4.7352C7.79846 4.57952 8.39198 4.50044 8.98816 4.5C10.4187 4.5 11.8211 4.93699 13.1559 5.80078C14.3762 6.58828 15.4671 7.695 16.3116 9C16.3122 9.0008 16.3125 9.00179 16.3125 9.00281C16.3125 9.00383 16.3122 9.00482 16.3116 9.00563C15.6986 9.97064 14.9379 10.8334 14.0573 11.5625C14.0498 11.5688 14.0436 11.5765 14.0392 11.5852C14.0349 11.5939 14.0323 11.6035 14.0318 11.6132C14.0313 11.623 14.0329 11.6327 14.0364 11.6419C14.0398 11.651 14.0452 11.6593 14.0521 11.6662L14.7517 12.3655C14.7641 12.378 14.7807 12.3854 14.7982 12.3863C14.8158 12.3871 14.8331 12.3813 14.8466 12.3701C15.7867 11.5785 16.6004 10.6481 17.2597 9.61102C17.3763 9.42826 17.4379 9.21588 17.4372 8.99913C17.4366 8.78238 17.3738 8.57037 17.2562 8.38828V8.38828Z" fill="black"/>
<path d="M8.99993 5.625C8.74713 5.62486 8.49512 5.65317 8.24864 5.70938C8.2362 5.71196 8.22468 5.71787 8.21532 5.72648C8.20597 5.73509 8.19912 5.74608 8.19552 5.75827C8.19191 5.77046 8.19168 5.78341 8.19484 5.79572C8.198 5.80804 8.20445 5.81926 8.21349 5.8282L12.1717 9.78539C12.1807 9.79443 12.1919 9.80087 12.2042 9.80404C12.2165 9.8072 12.2295 9.80697 12.2417 9.80336C12.2539 9.79975 12.2648 9.79291 12.2735 9.78355C12.2821 9.7742 12.288 9.76268 12.2906 9.75023C12.4033 9.25595 12.4031 8.74263 12.2902 8.24839C12.1773 7.75416 11.9546 7.29171 11.6384 6.89538C11.3223 6.49906 10.9209 6.17905 10.4641 5.95912C10.0074 5.73919 9.5069 5.62499 8.99993 5.625V5.625Z" fill="black"/>
<path d="M5.82818 8.21459C5.81924 8.20555 5.80801 8.1991 5.7957 8.19594C5.78338 8.19277 5.77044 8.19301 5.75825 8.19661C5.74606 8.20022 5.73507 8.20707 5.72646 8.21642C5.71785 8.22578 5.71194 8.23729 5.70935 8.24974C5.58186 8.80674 5.59787 9.38699 5.75588 9.93611C5.9139 10.4852 6.20874 10.9852 6.61278 11.3893C7.01683 11.7933 7.51684 12.0882 8.06596 12.2462C8.61508 12.4042 9.19533 12.4202 9.75233 12.2927C9.76478 12.2901 9.77629 12.2842 9.78565 12.2756C9.795 12.267 9.80185 12.256 9.80545 12.2438C9.80906 12.2316 9.8093 12.2187 9.80613 12.2064C9.80297 12.1941 9.79652 12.1828 9.78748 12.1739L5.82818 8.21459Z" fill="black"/>
</svg>
