<svg width="50" height="50" viewBox="0 0 50 50" fill="none" xmlns="http://www.w3.org/2000/svg">
<path d="M32.8125 20.3125V11.0352C32.8125 8.96315 31.9894 6.97601 30.5243 5.51088C29.0591 4.04576 27.072 3.22266 25 3.22266C22.928 3.22266 20.9409 4.04576 19.4757 5.51088C18.0106 6.97601 17.1875 8.96315 17.1875 11.0352V20.3125" stroke="#E0483F" stroke-width="3" stroke-linecap="round" stroke-linejoin="round"/>
<path d="M35.9375 20.3125H14.0625C11.4737 20.3125 9.375 22.4112 9.375 25V42.1875C9.375 44.7763 11.4737 46.875 14.0625 46.875H35.9375C38.5263 46.875 40.625 44.7763 40.625 42.1875V25C40.625 22.4112 38.5263 20.3125 35.9375 20.3125Z" stroke="#E0483F" stroke-width="3" stroke-linecap="round" stroke-linejoin="round"/>
</svg>
