<svg aria-hidden="true" style="position: absolute; width: 0; height: 0; overflow: hidden;" version="1.1" xmlns="http://www.w3.org/2000/svg" xmlns:xlink="http://www.w3.org/1999/xlink">
  <defs>

    <symbol id="logo" viewBox="0 0 40 22">
          <title>Logo</title>
          <path d="M22.8203 0.384418C13.6603 0.837823 5.48031 4.2975 3.66031 8.46686C2.66031 10.7634 3.91031 13.2473 6.79031 14.7061L6.96031 14.7948L7.57031 14.371L8.18031 13.9471L7.74031 13.7303C3.78031 11.7787 3.61031 8.96954 7.29031 6.26883C14.3103 1.10395 30.0103 0.019723 36.4803 4.25807C36.8503 4.50449 37.5403 5.0466 37.5103 5.07617C37.5003 5.08603 37.2603 5.07617 36.9603 5.05646C26.6803 4.40592 15.1803 8.76255 4.94031 17.1801C3.01031 18.767 0.0903107 21.4875 0.280311 21.517C0.310311 21.5269 1.65031 21.1228 3.25031 20.6299L6.16031 19.733L6.45031 19.3387C10.2503 14.2133 16.0603 10.1425 23.2303 7.59947C24.3203 7.21506 26.6703 6.50538 26.8703 6.50538C26.8903 6.50538 26.4603 6.65323 25.9103 6.84051C19.8303 8.85126 14.3003 12.1729 9.82031 16.5C8.65031 17.6335 6.98031 19.4964 7.06031 19.5753C7.07031 19.5851 7.48031 19.5457 7.98031 19.4964C8.48031 19.4471 8.92031 19.3979 8.97031 19.3979C9.03031 19.3979 9.14031 19.2894 9.37031 18.9937C13.3003 13.819 19.7403 9.5708 27.6003 6.93908C28.4703 6.65323 28.5103 6.65323 27.7103 6.95879C21.5903 9.26524 16.1103 12.7348 12.2903 16.7267C11.4803 17.5744 10.4403 18.8163 10.1903 19.2402L10.1203 19.3584L10.3703 19.3781C10.9403 19.4373 16.7303 19.8315 16.7503 19.8217C16.7603 19.8118 16.7903 19.6443 16.8303 19.457C17.7503 14.2231 21.7903 10.1326 28.7203 7.44177C31.2803 6.44625 34.6103 5.57886 37.2803 5.20431L37.6103 5.15503L37.7603 5.33245C39.0603 6.78137 38.8203 8.388 37.0403 10.1425C33.7703 13.3656 26.6703 15.6031 19.2403 15.7509L18.8203 15.7608L18.4903 16.4113L18.1603 17.0618L19.4303 17.0421C28.7903 16.8647 37.6403 13.2966 39.5503 8.93997C40.0103 7.88531 40.0003 6.63352 39.5303 5.638C37.8703 2.14875 30.9403 -0.0197035 22.8203 0.384418Z"/>
    </symbol>

    <symbol id="carat-right" viewBox="0 0 16 16">
        <title>Carat Right</title>
        <path d="M5.75 3.5L10.25 8L5.75 12.5" stroke-width="2" stroke-linecap="round" stroke-linejoin="round"/>
    </symbol>

    <symbol id="globe" viewBox="0 0 16 16" fill="none">
        <title>Globe</title>
        <path d="M8 1.5C4.41031 1.5 1.5 4.41031 1.5 8C1.5 11.5897 4.41031 14.5 8 14.5C11.5897 14.5 14.5 11.5897 14.5 8C14.5 4.41031 11.5897 1.5 8 1.5Z" stroke-miterlimit="10"/>
        <path d="M7.99945 1.5C6.18476 1.5 4.47852 4.41031 4.47852 8C4.47852 11.5897 6.18476 14.5 7.99945 14.5C9.81413 14.5 11.5204 11.5897 11.5204 8C11.5204 4.41031 9.81413 1.5 7.99945 1.5Z" stroke-miterlimit="10"/>
        <path d="M3.66602 3.6665C4.86102 4.51494 6.36539 5.02088 7.99945 5.02088C9.63352 5.02088 11.1379 4.51494 12.3329 3.6665" stroke-linecap="round" stroke-linejoin="round"/>
        <path d="M12.3329 12.3334C11.1379 11.4849 9.63352 10.979 7.99945 10.979C6.36539 10.979 4.86102 11.4849 3.66602 12.3334" stroke-linecap="round" stroke-linejoin="round"/>
        <path d="M8 1.5V14.5" stroke-miterlimit="10"/>
        <path d="M14.5 8H1.5" stroke-miterlimit="10"/>
    </symbol>

    <symbol id="menu" viewBox="0 0 16 16">
        <title>Menu</title>
        <path d="M4.5 3.25C4.5 2.55964 3.94036 2 3.25 2C2.55964 2 2 2.55964 2 3.25C2 3.94036 2.55964 4.5 3.25 4.5C3.94036 4.5 4.5 3.94036 4.5 3.25Z"/>
        <path d="M9.25 3.25C9.25 2.55964 8.69036 2 8 2C7.30964 2 6.75 2.55964 6.75 3.25C6.75 3.94036 7.30964 4.5 8 4.5C8.69036 4.5 9.25 3.94036 9.25 3.25Z"/>
        <path d="M14 3.25C14 2.55964 13.4404 2 12.75 2C12.0596 2 11.5 2.55964 11.5 3.25C11.5 3.94036 12.0596 4.5 12.75 4.5C13.4404 4.5 14 3.94036 14 3.25Z"/>
        <path d="M4.5 8C4.5 7.30964 3.94036 6.75 3.25 6.75C2.55964 6.75 2 7.30964 2 8C2 8.69036 2.55964 9.25 3.25 9.25C3.94036 9.25 4.5 8.69036 4.5 8Z"/>
        <path d="M9.25 8C9.25 7.30964 8.69036 6.75 8 6.75C7.30964 6.75 6.75 7.30964 6.75 8C6.75 8.69036 7.30964 9.25 8 9.25C8.69036 9.25 9.25 8.69036 9.25 8Z"/>
        <path d="M14 8C14 7.30964 13.4404 6.75 12.75 6.75C12.0596 6.75 11.5 7.30964 11.5 8C11.5 8.69036 12.0596 9.25 12.75 9.25C13.4404 9.25 14 8.69036 14 8Z"/>
        <path d="M4.5 12.75C4.5 12.0596 3.94036 11.5 3.25 11.5C2.55964 11.5 2 12.0596 2 12.75C2 13.4404 2.55964 14 3.25 14C3.94036 14 4.5 13.4404 4.5 12.75Z"/>
        <path d="M9.25 12.75C9.25 12.0596 8.69036 11.5 8 11.5C7.30964 11.5 6.75 12.0596 6.75 12.75C6.75 13.4404 7.30964 14 8 14C8.69036 14 9.25 13.4404 9.25 12.75Z"/>
        <path d="M14 12.75C14 12.0596 13.4404 11.5 12.75 11.5C12.0596 11.5 11.5 12.0596 11.5 12.75C11.5 13.4404 12.0596 14 12.75 14C13.4404 14 14 13.4404 14 12.75Z"/>
    </symbol>

    <symbol id="exit" viewBox="0 0 18 18" fill="none">
        <title>Exit</title>
        <path d="M11.25 6.1875V4.78125C11.25 4.40829 11.1018 4.0506 10.8381 3.78688C10.5744 3.52316 10.2167 3.375 9.84375 3.375H3.09375C2.72079 3.375 2.3631 3.52316 2.09938 3.78688C1.83566 4.0506 1.6875 4.40829 1.6875 4.78125V13.2188C1.6875 13.5917 1.83566 13.9494 2.09938 14.2131C2.3631 14.4768 2.72079 14.625 3.09375 14.625H9.84375C10.2167 14.625 10.5744 14.4768 10.8381 14.2131C11.1018 13.9494 11.25 13.5917 11.25 13.2188V11.8125" stroke-linecap="round" stroke-linejoin="round"/>
        <path d="M13.5 6.1875L16.3125 9L13.5 11.8125" stroke-linecap="round" stroke-linejoin="round"/>
        <path d="M6.71484 9H16.3125" stroke-linecap="round" stroke-linejoin="round"/>
    </symbol>

    <symbol id="star" viewBox="0 0 16 16">
        <title>Star</title>
        <path d="M15 6.5H9.625L8 1.5L6.375 6.5H1L5.375 9.5L3.6875 14.5L8 11.375L12.3125 14.5L10.625 9.5L15 6.5Z" stroke-linejoin="round"/>
    </symbol>

    <symbol id="person" viewBox="0 0 18 18" fill="none">
        <title>Person</title>
        <path d="M12.0939 5.0625C11.9561 6.92121 10.547 8.4375 9.00015 8.4375C7.45328 8.4375 6.04175 6.92156 5.9064 5.0625C5.76578 3.12891 7.13687 1.6875 9.00015 1.6875C10.8634 1.6875 12.2345 3.16406 12.0939 5.0625Z" stroke-linecap="round" stroke-linejoin="round"/>
        <path d="M9.00009 10.6875C5.94149 10.6875 2.83719 12.375 2.26274 15.5602C2.19348 15.9441 2.41075 16.3125 2.81259 16.3125H15.1876C15.5898 16.3125 15.807 15.9441 15.7378 15.5602C15.163 12.375 12.0587 10.6875 9.00009 10.6875Z" stroke-miterlimit="10"/>
    </symbol>

    <symbol id="close" viewBox="0 0 18 18" fill="none">
        <title>Close</title>
        <path d="M12.9375 12.9375L5.0625 5.0625" stroke-linecap="round" stroke-linejoin="round"/>
        <path d="M12.9375 5.0625L5.0625 12.9375" stroke-linecap="round" stroke-linejoin="round"/>
    </symbol>


  </defs>
</svg>