<svg width="20" height="20" viewBox="0 0 20 20" fill="none" xmlns="http://www.w3.org/2000/svg">
<path d="M15.9265 8.75C15.7937 8.75 15.3488 8.75391 15.2234 8.76172L12.6883 8.82812C12.6751 8.82893 12.6619 8.82608 12.6503 8.81987C12.6386 8.81366 12.6289 8.80435 12.6222 8.79297L7.56052 2.63906C7.52982 2.59842 7.49066 2.56494 7.44574 2.54092C7.40082 2.51691 7.35122 2.50295 7.30037 2.5H6.24998L9.10154 8.78906C9.10834 8.80346 9.11128 8.81938 9.11007 8.83525C9.10886 8.85113 9.10354 8.86642 9.09464 8.87962C9.08573 8.89281 9.07355 8.90347 9.05928 8.91054C9.04501 8.9176 9.02915 8.92084 9.01326 8.91992L4.25974 8.99023C4.21028 8.99173 4.16115 8.98155 4.11636 8.96051C4.07157 8.93947 4.03236 8.90817 4.00193 8.86914L2.55662 7.11133C2.43943 6.95898 2.2199 6.87695 2.02888 6.87695H1.29217C1.24178 6.87695 1.2492 6.92422 1.26287 6.97187L2.03787 9.76172C2.09645 9.91113 2.09645 10.0772 2.03787 10.2266L1.26209 13.0078C1.23904 13.084 1.24178 13.125 1.33123 13.125H2.03123C2.3492 13.125 2.39256 13.0836 2.55506 12.8789L4.02771 11.0938C4.05841 11.055 4.09767 11.0239 4.1424 11.0029C4.18713 10.9819 4.23612 10.9716 4.28552 10.9727L8.99959 11.0781C9.01675 11.0785 9.03356 11.0831 9.04855 11.0915C9.06355 11.0998 9.07628 11.1117 9.08563 11.1261C9.09498 11.1405 9.10068 11.157 9.10223 11.1741C9.10378 11.1912 9.10113 11.2084 9.09451 11.2242L6.24998 17.5H7.2906C7.34135 17.497 7.39086 17.4831 7.4357 17.4592C7.48055 17.4352 7.51967 17.4018 7.55037 17.3613L12.6226 11.2109C12.6379 11.1875 12.7008 11.1758 12.7277 11.1758L15.2238 11.2422C15.3527 11.25 15.7937 11.2539 15.9269 11.2539C17.6562 11.2539 18.75 10.7785 18.75 10C18.75 9.22148 17.6609 8.75 15.9265 8.75Z" stroke="#333333" stroke-linecap="round" stroke-linejoin="round"/>
</svg>
