<svg width="16" height="16" viewBox="0 0 16 16" fill="none" xmlns="http://www.w3.org/2000/svg">
<path d="M4.5 3.25C4.5 2.55964 3.94036 2 3.25 2C2.55964 2 2 2.55964 2 3.25C2 3.94036 2.55964 4.5 3.25 4.5C3.94036 4.5 4.5 3.94036 4.5 3.25Z" fill="white"/>
<path d="M9.25 3.25C9.25 2.55964 8.69036 2 8 2C7.30964 2 6.75 2.55964 6.75 3.25C6.75 3.94036 7.30964 4.5 8 4.5C8.69036 4.5 9.25 3.94036 9.25 3.25Z" fill="white"/>
<path d="M14 3.25C14 2.55964 13.4404 2 12.75 2C12.0596 2 11.5 2.55964 11.5 3.25C11.5 3.94036 12.0596 4.5 12.75 4.5C13.4404 4.5 14 3.94036 14 3.25Z" fill="white"/>
<path d="M4.5 8C4.5 7.30964 3.94036 6.75 3.25 6.75C2.55964 6.75 2 7.30964 2 8C2 8.69036 2.55964 9.25 3.25 9.25C3.94036 9.25 4.5 8.69036 4.5 8Z" fill="white"/>
<path d="M9.25 8C9.25 7.30964 8.69036 6.75 8 6.75C7.30964 6.75 6.75 7.30964 6.75 8C6.75 8.69036 7.30964 9.25 8 9.25C8.69036 9.25 9.25 8.69036 9.25 8Z" fill="white"/>
<path d="M14 8C14 7.30964 13.4404 6.75 12.75 6.75C12.0596 6.75 11.5 7.30964 11.5 8C11.5 8.69036 12.0596 9.25 12.75 9.25C13.4404 9.25 14 8.69036 14 8Z" fill="white"/>
<path d="M4.5 12.75C4.5 12.0596 3.94036 11.5 3.25 11.5C2.55964 11.5 2 12.0596 2 12.75C2 13.4404 2.55964 14 3.25 14C3.94036 14 4.5 13.4404 4.5 12.75Z" fill="white"/>
<path d="M9.25 12.75C9.25 12.0596 8.69036 11.5 8 11.5C7.30964 11.5 6.75 12.0596 6.75 12.75C6.75 13.4404 7.30964 14 8 14C8.69036 14 9.25 13.4404 9.25 12.75Z" fill="white"/>
<path d="M14 12.75C14 12.0596 13.4404 11.5 12.75 11.5C12.0596 11.5 11.5 12.0596 11.5 12.75C11.5 13.4404 12.0596 14 12.75 14C13.4404 14 14 13.4404 14 12.75Z" fill="white"/>
</svg>
