<svg width="18" height="18" viewBox="0 0 18 18" fill="none" xmlns="http://www.w3.org/2000/svg">
<path d="M7.66758 5.87707C7.66758 6.3341 7.66758 6.77707 7.81172 7.19191C6.29648 8.97082 2.2957 13.6712 1.92305 14.0298C1.84898 14.0963 1.78973 14.1776 1.74915 14.2684C1.70857 14.3593 1.68756 14.4576 1.6875 14.5571C1.6875 14.856 1.87031 15.1443 2.025 15.306C2.25703 15.5486 3.24844 16.4661 3.43125 16.2904C3.97266 15.763 4.08164 15.6224 4.30313 15.4044C4.63711 15.0775 4.26797 14.4095 4.38398 14.1388C4.5 13.8681 4.62305 13.8154 4.82344 13.7732C5.02383 13.731 5.37891 13.8751 5.65664 13.8786C5.94844 13.8821 6.10664 13.7591 6.32461 13.5552C6.50039 13.3935 6.62695 13.2423 6.63047 13.0068C6.6375 12.6904 6.18047 12.272 6.52148 11.938C6.8625 11.604 7.35469 12.156 7.7168 12.1138C8.07891 12.0716 8.51836 11.5689 8.56406 11.3544C8.60977 11.14 8.15273 10.588 8.22305 10.2751C8.24766 10.1696 8.46211 9.92355 8.62383 9.8884C8.78555 9.85324 9.50273 10.131 9.66445 10.0958C9.86133 10.0536 10.0898 9.84621 10.2762 9.73019C10.8211 9.96574 11.3168 10.0607 11.9531 10.0607C14.3613 10.0607 16.3125 8.18332 16.3125 5.87004C16.3125 3.55676 14.3613 1.6875 11.9531 1.6875C9.54492 1.6875 7.66758 3.56379 7.66758 5.87707ZM14.0625 5.0625C14.0625 5.285 13.9965 5.50251 13.8729 5.68752C13.7493 5.87252 13.5736 6.01672 13.368 6.10186C13.1625 6.18701 12.9363 6.20929 12.718 6.16588C12.4998 6.12248 12.2993 6.01533 12.142 5.85799C11.9847 5.70066 11.8775 5.50021 11.8341 5.28198C11.7907 5.06375 11.813 4.83755 11.8981 4.63198C11.9833 4.42641 12.1275 4.25071 12.3125 4.1271C12.4975 4.00348 12.715 3.9375 12.9375 3.9375C13.2359 3.9375 13.522 4.05603 13.733 4.267C13.944 4.47798 14.0625 4.76413 14.0625 5.0625Z" stroke="#737373" stroke-linejoin="round"/>
</svg>
